<?xml version="1.0" encoding="UTF-8" standalone="no"?>
<!DOCTYPE svg PUBLIC "-//W3C//DTD SVG 1.1//EN" "http://www.w3.org/Graphics/SVG/1.1/DTD/svg11.dtd">
<svg xmlns="http://www.w3.org/2000/svg" version="1.1" viewBox="0.00 0.00 500.00 500.00">
<g stroke-width="2.00" fill="none" stroke-linecap="butt">
<path stroke="#282352" vector-effect="non-scaling-stroke" d="
  M 494.38 72.33
  L 491.56 67.77
  Q 491.33 67.40 490.94 67.61
  Q 489.90 68.16 488.76 67.95
  Q 488.40 67.89 488.09 67.69
  Q 487.85 67.54 487.59 67.65
  Q 487.06 67.89 486.56 67.58
  Q 485.30 66.78 483.91 66.34
  Q 482.51 65.89 481.15 65.16
  Q 479.38 64.23 477.50 63.77
  Q 477.10 63.68 476.82 63.39
  Q 476.39 62.95 475.77 63.10
  Q 475.26 63.21 474.76 63.10
  Q 471.80 62.39 468.75 62.64
  Q 468.55 62.66 468.37 62.58
  Q 468.10 62.46 468.19 62.18
  A 0.22 0.22 0.0 0 0 468.01 61.90
  Q 466.82 61.77 465.79 61.27
  Q 465.51 61.14 465.20 61.13
  Q 464.02 61.12 462.79 60.82
  Q 460.26 60.23 457.03 60.55
  A 1.84 1.83 -32.9 0 1 455.98 60.33
  Q 455.05 59.81 454.06 59.64
  C 451.95 59.28 450.79 60.96 448.53 60.17
  Q 448.02 60.00 447.55 60.26
  Q 446.72 60.72 445.94 60.29
  Q 445.60 60.11 445.25 60.27
  Q 444.07 60.84 442.47 60.70
  Q 442.11 60.67 442.02 60.31
  Q 441.92 59.87 441.47 59.81
  L 434.19 58.74
  Q 433.85 58.69 433.68 58.40
  Q 433.58 58.23 433.63 58.04
  Q 433.74 57.57 433.34 57.30
  Q 432.77 56.92 432.19 57.34
  Q 431.81 57.60 431.85 58.06
  Q 431.93 59.05 430.94 59.23
  Q 430.66 59.28 430.63 59.56
  Q 430.61 59.71 430.61 59.87
  Q 430.64 60.48 430.04 60.60
  Q 426.04 61.35 422.16 60.66
  Q 421.61 60.56 421.64 60.00
  Q 421.66 59.50 421.17 59.38
  Q 419.53 58.94 417.53 58.85
  A 0.69 0.68 1.8 0 1 416.88 58.17
  L 416.88 57.76
  Q 416.88 57.35 416.48 57.35
  Q 409.32 57.24 402.38 57.38
  Q 400.11 57.42 397.32 56.96
  Q 395.02 56.58 392.28 56.50
  C 391.00 56.47 390.01 55.67 388.67 55.93
  Q 386.32 56.38 384.21 56.00
  Q 381.68 55.53 379.30 55.60
  Q 377.03 55.68 374.60 54.99
  Q 370.45 53.82 365.54 54.35
  Q 364.06 54.51 362.66 54.17
  Q 361.00 53.77 359.39 53.93
  Q 357.51 54.12 355.48 53.73
  Q 352.31 53.12 348.99 53.61
  Q 348.70 53.66 348.49 53.42
  A 0.61 0.60 70.5 0 0 348.10 53.23
  Q 340.59 52.46 333.03 53.01
  C 332.08 53.08 330.95 52.90 329.94 53.03
  C 328.38 53.24 326.99 52.61 325.47 52.99
  A 1.69 1.68 47.2 0 1 324.52 52.95
  Q 322.77 52.36 321.13 52.91
  A 0.60 0.59 -87.2 0 1 320.40 52.10
  Q 320.80 51.21 320.02 50.36
  A 0.95 0.95 0.0 0 0 319.04 50.10
  Q 317.55 50.59 316.45 49.38
  Q 315.93 48.81 316.69 48.90
  Q 317.54 48.99 318.29 48.64
  Q 318.73 48.44 319.15 48.65
  Q 319.73 48.94 320.29 48.54
  Q 320.84 48.15 320.18 48.03
  Q 314.49 47.00 312.99 47.46
  Q 310.14 48.33 306.99 47.38
  Q 304.78 46.72 303.88 48.22
  Q 303.62 48.65 303.14 48.77
  Q 300.69 49.40 298.47 48.54
  Q 298.02 48.36 297.54 48.45
  L 289.53 49.85
  Q 289.16 49.91 288.81 49.75
  Q 288.42 49.56 288.22 49.87
  Q 287.88 50.37 287.29 50.37
  L 280.38 50.37
  A 0.68 0.68 0.0 0 1 279.81 50.06
  Q 279.52 49.64 279.69 49.22
  Q 280.03 48.38 279.13 48.35
  Q 268.11 47.97 256.71 48.45
  Q 256.20 48.47 255.98 48.94
  Q 255.92 49.07 255.84 49.17
  Q 255.50 49.59 254.97 49.58
  L 240.85 49.40
  Q 240.33 49.40 240.03 48.97
  Q 239.76 48.59 239.62 48.12
  Q 239.53 47.83 239.28 48.00
  Q 238.35 48.59 237.29 48.41
  Q 235.20 48.04 233.29 48.09
  Q 233.01 48.10 232.85 47.86
  L 232.60 47.48
  Q 232.35 47.08 231.88 47.05
  Q 224.54 46.46 217.00 46.51
  Q 190.68 46.69 164.37 46.60
  Q 163.62 46.60 164.12 47.15
  Q 164.27 47.32 164.06 47.58
  Q 163.71 48.02 163.15 47.98
  Q 161.97 47.92 160.87 47.89
  Q 160.39 47.88 160.36 48.36
  Q 160.25 49.81 158.75 50.14
  Q 151.99 51.60 145.58 49.46
  Q 145.10 49.30 144.84 48.86
  Q 144.59 48.44 144.49 47.96
  Q 144.41 47.56 144.02 47.71
  Q 142.72 48.23 141.74 47.24
  Q 141.49 46.98 141.23 47.23
  Q 141.04 47.42 140.76 47.42
  Q 140.24 47.41 139.82 47.09
  Q 139.33 46.71 138.71 46.86
  A 0.39 0.34 34.6 0 1 138.54 46.88
  Q 138.15 46.86 138.17 46.61
  Q 138.26 45.71 137.91 46.54
  Q 137.85 46.69 137.71 46.78
  Q 137.32 47.01 137.14 46.59
  Q 136.92 46.07 136.45 45.85
  A 0.25 0.25 0.0 0 0 136.11 46.17
  Q 136.22 46.46 136.02 46.69
  Q 135.72 47.03 135.29 46.88
  Q 134.27 46.55 134.11 47.58
  A 0.22 0.22 0.0 0 1 133.79 47.74
  Q 133.25 47.46 132.70 47.73
  Q 131.59 48.29 131.01 47.27
  A 0.19 0.19 0.0 0 0 130.69 47.25
  Q 130.51 47.53 130.15 47.13
  A 0.54 0.53 -53.4 0 1 130.07 46.55
  Q 130.30 46.04 130.66 46.13
  Q 131.09 46.25 130.73 45.98
  Q 130.58 45.86 130.40 45.89
  Q 129.31 46.08 128.68 46.85
  Q 127.98 47.71 126.93 47.95
  Q 125.79 48.20 124.50 47.84
  Q 122.30 47.21 120.13 47.04
  Q 119.97 47.03 119.88 46.89
  Q 119.80 46.76 119.71 46.63
  Q 119.53 46.34 119.21 46.24
  Q 117.85 45.82 116.45 46.13
  Q 114.51 46.56 113.88 46.59
  Q 110.39 46.78 106.94 47.55
  Q 102.62 48.51 99.95 48.62
  Q 91.87 48.93 84.34 48.94
  Q 83.79 48.94 82.19 49.17
  Q 81.10 49.33 79.97 49.15
  Q 79.49 49.08 79.04 49.27
  Q 77.53 49.93 75.87 49.69
  Q 75.20 49.59 74.75 50.11
  A 0.46 0.45 33.4 0 1 74.20 50.22
  Q 73.40 49.81 72.75 50.39
  A 1.34 1.30 19.3 0 1 72.10 50.69
  Q 70.13 50.97 69.07 52.58
  Q 68.79 53.00 68.33 52.82
  Q 68.15 52.75 68.13 52.52
  A 0.49 0.48 -1.3 0 0 67.67 52.09
  Q 66.50 52.02 65.48 52.48
  Q 65.03 52.67 64.57 52.50
  Q 62.51 51.73 60.60 51.73
  Q 59.30 51.74 58.77 52.96
  A 0.61 0.61 0.0 0 1 58.05 53.30
  Q 54.54 52.38 49.88 53.40
  C 48.31 53.75 46.79 53.13 45.32 54.02
  Q 42.77 55.56 39.92 55.81
  Q 37.37 56.04 34.91 56.04
  Q 32.27 56.04 34.03 54.06
  Q 35.45 52.47 36.77 50.53
  Q 37.22 49.88 36.43 50.00
  Q 34.53 50.31 32.38 50.40
  Q 32.01 50.42 31.73 50.21
  Q 31.57 50.10 31.53 49.90
  Q 31.42 49.36 30.87 49.43
  Q 28.77 49.70 27.42 48.69
  Q 27.01 48.38 26.50 48.40
  L 24.05 48.48
  A 1.01 0.92 55.8 0 1 23.55 48.36
  Q 23.03 48.08 22.48 48.34
  Q 19.46 49.73 16.50 48.95"
/>
<path stroke="#33204f" vector-effect="non-scaling-stroke" d="
  M 500.00 167.81
  Q 499.79 168.98 499.08 169.52
  Q 498.53 169.95 497.38 169.73
  Q 491.15 168.56 484.56 168.06
  Q 483.75 168.00 481.24 168.66
  Q 480.76 168.78 480.30 168.59
  C 478.99 168.02 477.46 167.59 476.05 168.07
  Q 473.75 168.86 471.63 168.28
  Q 469.95 167.82 468.10 168.34
  Q 466.15 168.89 464.00 168.09
  Q 463.56 167.93 463.22 168.24
  Q 462.84 168.59 462.32 168.59
  L 458.73 168.65
  Q 458.26 168.66 457.83 168.46
  Q 457.15 168.15 456.41 168.49
  A 1.05 1.04 -45.3 0 1 455.59 168.50
  L 455.06 168.27
  A 1.01 0.98 44.2 0 0 454.25 168.27
  Q 452.71 168.96 451.56 168.52
  Q 450.48 168.11 449.22 168.04
  Q 442.01 167.64 434.99 168.11
  Q 433.45 168.21 431.92 168.00
  Q 430.44 167.79 429.00 167.87
  Q 418.98 168.39 407.89 168.62
  Q 406.08 168.66 404.29 168.81
  Q 402.08 169.00 400.07 168.69
  Q 399.60 168.62 399.17 168.83
  Q 398.69 169.07 398.19 168.97
  Q 397.51 168.84 396.82 168.88
  Q 394.18 169.05 391.56 168.67
  Q 390.26 168.48 388.94 168.50
  Q 387.61 168.51 386.32 168.36
  Q 386.08 168.33 382.72 168.34
  Q 380.85 168.34 379.30 167.48
  Q 378.86 167.24 378.37 167.23
  Q 373.42 167.16 368.06 165.07
  A 1.49 1.47 45.3 0 0 367.02 165.06
  Q 365.79 165.52 366.36 166.08
  A 0.87 0.87 0.0 0 1 366.43 167.25
  Q 366.08 167.69 366.37 168.15
  Q 366.53 168.40 366.29 168.60
  Q 365.46 169.29 366.26 170.34
  Q 367.63 172.13 366.12 171.58"
/>
<path stroke="#537da4" vector-effect="non-scaling-stroke" d="
  M 366.12 171.58
  Q 362.86 159.36 358.46 147.50
  Q 355.73 140.16 350.36 135.49
  C 344.16 130.10 337.63 126.76 329.46 126.13
  C 316.32 125.13 303.98 131.17 296.47 142.62
  Q 290.53 151.68 284.74 159.66
  C 282.34 162.98 280.39 166.69 278.15 170.28"
/>
<path stroke="#416094" vector-effect="non-scaling-stroke" d="
  M 278.15 170.28
  Q 266.76 185.16 262.50 191.98
  Q 257.27 200.36 251.75 208.53
  Q 251.27 209.24 250.85 210.30"
/>
<path stroke="#291c42" vector-effect="non-scaling-stroke" d="
  M 250.85 210.30
  Q 250.42 210.28 249.75 210.55"
/>
<path stroke="#626a43" vector-effect="non-scaling-stroke" d="
  M 249.75 210.55
  Q 249.92 209.56 249.58 208.99
  C 246.02 203.17 241.54 197.38 237.87 191.63
  Q 232.27 182.84 227.05 175.74
  Q 222.57 169.63 219.10 164.71"
/>
<path stroke="#6f7c4c" vector-effect="non-scaling-stroke" d="
  M 219.10 164.71
  Q 211.71 153.19 204.38 143.38
  Q 199.81 137.25 195.60 133.87
  C 184.70 125.11 167.72 123.16 155.20 131.28
  C 147.24 136.43 143.08 141.43 140.24 150.76
  Q 135.45 166.52 134.17 171.42"
/>
<path stroke="#33204f" vector-effect="non-scaling-stroke" d="
  M 134.17 171.42
  Q 132.84 172.54 132.32 174.44
  Q 132.13 175.17 131.90 174.45
  Q 131.78 174.07 131.72 173.67
  Q 131.64 173.13 131.12 173.25
  Q 128.30 173.89 125.59 172.78
  Q 125.09 172.58 125.01 173.12
  Q 124.90 173.84 124.14 173.71
  Q 123.63 173.62 124.07 173.35
  Q 124.20 173.27 123.95 173.08
  Q 123.84 172.99 123.69 172.99
  Q 120.46 172.94 117.23 172.85
  Q 117.00 172.84 116.81 172.94
  Q 116.52 173.09 116.56 173.40
  Q 116.62 173.96 116.36 173.46
  Q 116.28 173.29 116.30 173.10
  Q 116.36 172.66 115.98 172.89
  Q 115.85 172.96 115.90 173.11
  Q 116.06 173.57 115.59 173.70
  Q 114.62 173.96 114.31 173.24
  Q 114.10 172.77 113.61 172.67
  L 94.01 168.65
  A 0.80 0.30 24.7 0 0 93.88 168.64
  Q 90.68 168.76 87.51 168.51
  Q 85.97 168.38 83.91 169.52
  A 1.17 1.14 39.0 0 1 82.96 169.61
  Q 80.65 168.84 78.23 168.96
  Q 77.21 169.01 76.29 169.48
  Q 75.76 169.75 75.16 169.66
  Q 72.54 169.23 69.84 169.70
  Q 67.25 170.15 64.66 170.19
  Q 59.31 170.27 53.70 170.45
  Q 51.17 170.54 48.06 170.20
  Q 47.56 170.15 47.30 170.62
  Q 47.00 171.18 47.07 170.55
  Q 47.11 170.23 46.80 170.17
  Q 46.72 170.15 46.63 170.17
  Q 46.50 170.21 46.39 170.28
  Q 46.15 170.43 45.87 170.39
  Q 42.58 169.95 39.17 169.82
  Q 36.79 169.72 34.33 169.34
  Q 31.80 168.94 29.20 169.18
  Q 28.27 169.27 27.34 168.95
  Q 25.96 168.48 24.57 168.73
  Q 23.07 168.99 21.64 168.80
  Q 19.25 168.47 16.76 168.77
  Q 14.79 169.01 12.85 168.95
  Q 10.96 168.89 8.90 169.14
  Q 7.01 169.36 2.23 168.22
  A 1.34 1.30 -12.6 0 1 1.48 167.76
  Q -0.10 165.79 0.72 162.00
  Q 1.27 159.51 0.00 158.69"
/>
<path stroke="#5a7ba2" vector-effect="non-scaling-stroke" d="
  M 366.12 171.58
  L 371.14 186.67"
/>
<path stroke="#7cc3f2" vector-effect="non-scaling-stroke" d="
  M 371.14 186.67
  Q 368.55 187.39 366.25 187.15
  Q 359.51 186.45 352.75 186.02
  C 350.04 185.85 347.46 186.26 344.75 186.09
  Q 344.23 186.06 343.78 186.32
  Q 343.38 186.56 343.07 186.23
  Q 342.74 185.88 342.27 185.96
  Q 340.50 186.25 338.85 185.73
  Q 338.55 185.63 338.23 185.70
  Q 336.27 186.09 334.28 185.75
  Q 334.00 185.71 333.72 185.78
  Q 333.33 185.89 332.96 186.01
  Q 332.50 186.16 332.02 186.04
  Q 329.94 185.56 328.31 186.47
  Q 327.89 186.70 327.90 186.22
  Q 327.90 185.80 327.49 185.76
  Q 325.95 185.60 324.39 184.43"
/>
<path stroke="#68bbe8" vector-effect="non-scaling-stroke" d="
  M 324.39 184.43
  C 327.31 177.30 329.67 170.74 325.31 163.36
  Q 322.12 157.97 317.67 155.91
  C 308.98 151.91 303.05 152.52 294.73 156.90
  C 290.87 158.93 287.41 162.08 284.20 165.13
  Q 283.71 165.59 281.65 168.16
  Q 280.05 170.16 278.15 170.28"
/>
<path stroke="#a5c43f" vector-effect="non-scaling-stroke" d="
  M 219.10 164.71
  Q 211.40 157.75 202.93 155.10
  Q 197.06 153.26 192.06 154.02
  Q 185.57 155.01 181.37 157.81
  Q 173.36 163.15 173.31 172.44
  C 173.28 178.00 176.12 183.81 177.17 189.30
  Q 178.33 195.34 178.54 206.06"
/>
<path stroke="#a8b73a" vector-effect="non-scaling-stroke" d="
  M 178.54 206.06
  Q 178.59 218.52 175.22 231.32"
/>
<path stroke="#b9c640" vector-effect="non-scaling-stroke" d="
  M 175.22 231.32
  Q 168.48 230.75 161.85 230.69
  Q 160.95 230.69 160.17 230.36
  Q 159.31 229.99 158.47 230.03
  Q 157.30 230.08 156.06 229.76
  Q 154.91 229.46 153.73 229.28
  Q 153.52 229.25 153.37 229.40
  L 153.10 229.67
  Q 152.80 229.96 152.42 229.79
  C 151.66 229.44 150.59 228.84 149.78 228.78
  Q 142.76 228.23 135.45 227.03
  Q 133.95 226.79 132.54 226.96
  Q 130.89 227.16 129.26 226.40
  Q 128.93 226.24 128.59 226.37
  Q 127.27 226.87 125.71 226.90
  Q 125.30 226.90 125.07 226.58
  Q 124.10 225.24 122.09 225.59
  Q 119.89 225.97 116.51 225.69"
/>
<path stroke="#757a4b" vector-effect="non-scaling-stroke" d="
  M 116.51 225.69
  L 134.17 171.42"
/>
<path stroke="#6aa6e2" vector-effect="non-scaling-stroke" d="
  M 324.39 184.43
  Q 322.08 191.92 321.59 197.05
  Q 320.15 212.26 323.53 229.03
  C 325.06 236.61 328.11 242.90 331.12 249.88"
/>
<path stroke="#5785d6" vector-effect="non-scaling-stroke" d="
  M 331.12 249.88
  Q 320.15 251.50 309.08 250.47
  C 307.19 250.30 305.47 250.67 303.59 250.46
  Q 302.72 250.36 301.87 250.72
  Q 301.41 250.92 300.97 250.68
  L 300.15 250.24"
/>
<path stroke="#4e87c8" vector-effect="non-scaling-stroke" d="
  M 300.15 250.24
  C 299.30 233.26 302.00 216.40 307.02 200.28
  Q 308.04 197.02 305.51 199.31
  Q 296.76 207.21 288.84 215.02
  Q 284.59 219.21 279.15 226.00
  Q 274.60 231.69 269.73 237.33"
/>
<path stroke="#3e5a86" vector-effect="non-scaling-stroke" d="
  M 269.73 237.33
  L 250.85 210.30"
/>
<path stroke="#5f6435" vector-effect="non-scaling-stroke" d="
  M 249.75 210.55
  L 231.12 237.16"
/>
<path stroke="#89982b" vector-effect="non-scaling-stroke" d="
  M 231.12 237.16
  Q 225.83 231.58 220.74 226.07
  Q 216.25 221.20 212.15 217.86
  Q 202.64 210.10 194.21 201.56
  A 0.77 0.76 -57.7 0 0 192.95 201.85
  Q 192.86 202.09 193.08 202.75"
/>
<path stroke="#9ca531" vector-effect="non-scaling-stroke" d="
  M 193.08 202.75
  Q 192.56 203.20 192.34 202.91
  Q 192.16 202.69 192.18 202.40
  Q 192.20 201.93 191.74 201.88
  Q 189.54 201.61 187.46 201.96
  Q 183.93 202.54 179.79 202.14
  Q 179.21 202.08 179.12 202.65
  L 178.54 206.06"
/>
<path stroke="#7d6a43" vector-effect="non-scaling-stroke" d="
  M 116.51 225.69
  C 114.90 230.56 113.75 235.87 112.26 240.37
  Q 102.68 269.15 98.24 283.24
  Q 93.17 299.33 94.98 315.47"
/>
<path stroke="#301a41" vector-effect="non-scaling-stroke" d="
  M 94.98 315.47
  Q 91.51 322.99 93.15 330.99
  Q 94.75 338.80 100.94 344.84
  Q 103.34 347.18 108.06 349.59
  C 113.91 352.59 117.96 353.35 124.96 353.33"
/>
<path stroke="#3e1c4e" vector-effect="non-scaling-stroke" d="
  M 124.96 353.33
  L 121.96 353.54
  A 1.37 1.22 48.4 0 1 121.54 353.49
  Q 120.21 353.10 119.00 353.63
  Q 118.58 353.81 118.14 353.71
  Q 115.74 353.17 113.26 352.46
  Q 111.95 352.08 110.84 351.34
  Q 109.60 350.51 108.12 350.00
  Q 107.78 349.88 107.47 350.07
  Q 106.64 350.58 106.50 351.42
  Q 106.36 352.32 105.85 351.57
  Q 105.51 351.06 104.97 351.30
  Q 104.61 351.46 104.35 351.17
  Q 103.49 350.21 102.36 349.86
  Q 101.97 349.74 101.74 349.41
  Q 101.41 348.93 100.93 349.25
  Q 100.31 349.68 100.04 348.97
  Q 99.26 346.93 97.26 347.18
  Q 95.57 347.39 94.08 346.46
  Q 93.24 345.93 92.24 345.83
  Q 91.21 345.72 90.13 345.49
  Q 89.65 345.38 89.28 345.05
  Q 87.89 343.79 86.27 343.70
  Q 84.95 343.62 83.85 343.07
  A 2.10 1.92 -29.1 0 0 83.01 342.87
  Q 81.25 342.84 79.59 342.28
  Q 78.20 341.81 76.79 342.29
  C 74.36 343.11 72.47 341.82 70.18 342.37
  Q 69.31 342.58 68.49 342.78
  Q 67.37 343.06 65.73 342.91
  Q 64.01 342.75 62.29 343.03
  Q 60.64 343.31 59.01 343.29
  Q 56.25 343.26 53.59 343.23
  Q 48.79 343.19 42.90 341.88
  C 41.14 341.49 39.23 341.65 37.40 341.49
  Q 34.57 341.23 31.61 342.46
  Q 31.50 342.51 31.47 342.62
  Q 31.34 343.15 31.38 342.60
  Q 31.40 342.26 31.37 341.94
  Q 31.33 341.44 30.84 341.34
  Q 28.78 340.91 26.27 340.85
  Q 19.00 340.67 11.74 340.22
  Q 11.24 340.19 10.84 340.49
  Q 10.48 340.76 10.07 340.55
  Q 9.65 340.33 9.61 340.80
  Q 9.60 341.00 9.67 341.17
  A 0.38 0.38 0.0 0 1 9.31 341.69
  Q 8.74 341.68 8.88 341.12
  Q 9.06 340.43 8.35 340.43
  Q 6.67 340.44 5.29 339.78
  Q 4.66 339.48 3.90 339.56
  Q 2.60 339.69 2.26 340.61
  Q 2.02 341.24 1.56 340.74
  Q 0.02 339.06 0.00 340.63"
/>
<path stroke="#3e1c4e" vector-effect="non-scaling-stroke" d="
  M 500.00 336.39
  L 480.49 336.14
  Q 479.88 336.13 479.88 336.74
  L 479.88 337.29
  Q 479.88 337.89 479.28 337.88
  Q 477.49 337.84 475.51 337.76
  Q 467.10 337.38 458.25 337.47
  Q 456.14 337.50 453.01 336.66
  Q 452.47 336.52 452.00 336.81
  Q 451.10 337.36 450.06 337.13
  Q 448.95 336.89 447.82 337.11
  Q 445.14 337.61 443.00 337.45
  Q 436.69 336.99 431.08 337.74
  C 429.63 337.93 428.72 337.27 427.46 336.76
  A 1.25 1.24 -43.5 0 0 426.57 336.74
  Q 425.49 337.10 424.38 336.73
  Q 423.95 336.59 423.80 336.16
  Q 423.57 335.52 422.89 335.64
  Q 420.76 336.00 418.76 335.88
  Q 418.26 335.86 417.81 336.10
  Q 416.37 336.88 414.88 336.75
  Q 414.55 336.72 414.27 336.92
  Q 413.79 337.25 413.19 337.38
  Q 412.82 337.46 413.07 337.75
  Q 413.19 337.87 413.35 337.91
  Q 413.85 338.02 413.54 338.43
  Q 413.36 338.66 413.08 338.70
  Q 412.60 338.76 412.61 338.28
  Q 412.62 336.92 411.84 335.89
  A 0.50 0.48 58.0 0 0 411.23 335.74
  Q 410.58 336.06 409.88 335.84
  Q 409.25 335.64 409.14 336.31
  Q 409.01 337.17 407.98 336.75
  A 1.97 1.69 -26.3 0 0 407.47 336.62
  L 405.67 336.40
  Q 405.26 336.35 405.04 336.70
  L 403.92 338.54"
/>
<path stroke="#301a41" vector-effect="non-scaling-stroke" d="
  M 403.92 338.54
  Q 408.42 325.97 404.52 314.69"
/>
<path stroke="#5c669d" vector-effect="non-scaling-stroke" d="
  M 404.52 314.69
  Q 405.31 305.57 404.19 296.17
  Q 403.24 288.23 400.18 278.64
  Q 393.61 258.06 386.64 236.30
  C 385.81 233.70 385.51 230.98 384.72 228.50
  Q 381.98 219.76 371.14 186.67"
/>
<path stroke="#526290" vector-effect="non-scaling-stroke" d="
  M 404.52 314.69
  Q 402.41 324.26 396.15 329.17
  Q 389.28 334.56 379.62 335.22
  Q 367.65 336.03 355.44 330.58"
/>
<path stroke="#6c8de0" vector-effect="non-scaling-stroke" d="
  M 355.44 330.58
  Q 377.01 332.42 392.21 320.51
  Q 397.66 316.24 400.18 310.03
  A 1.59 1.59 0.0 0 0 399.14 307.91
  C 387.39 304.53 376.79 300.24 367.66 292.99
  Q 358.23 285.50 349.62 276.66
  C 344.67 271.58 340.52 265.01 336.18 259.01
  Q 334.67 256.91 331.12 249.88"
/>
<path stroke="#506ec6" vector-effect="non-scaling-stroke" d="
  M 300.15 250.24
  Q 301.26 267.94 305.37 285.88"
/>
<path stroke="#364376" vector-effect="non-scaling-stroke" d="
  M 305.37 285.88
  L 269.73 237.33"
/>
<path stroke="#504a2b" vector-effect="non-scaling-stroke" d="
  M 231.12 237.16
  L 192.40 289.41"
/>
<path stroke="#8d8b27" vector-effect="non-scaling-stroke" d="
  M 192.40 289.41
  Q 192.30 286.62 193.34 284.23
  Q 195.57 279.12 196.52 274.55
  Q 199.01 262.56 199.67 249.98
  Q 200.18 240.27 198.80 230.00
  Q 197.38 219.50 196.89 216.75
  Q 195.81 210.69 193.08 202.75"
/>
<path stroke="#635730" vector-effect="non-scaling-stroke" d="
  M 192.40 289.41
  L 190.00 293.12"
/>
<path stroke="#a68f29" vector-effect="non-scaling-stroke" d="
  M 190.00 293.12
  Q 189.72 291.45 186.00 291.39
  Q 180.11 291.29 174.64 290.50
  A 0.60 0.60 0.0 0 0 174.04 290.78
  Q 173.89 291.01 173.64 291.08
  Q 173.05 291.26 172.48 291.04
  Q 171.22 290.56 169.87 290.52
  Q 168.71 290.49 167.71 290.23
  Q 166.41 289.90 165.23 290.61
  Q 164.81 290.86 164.34 290.84
  Q 163.48 290.80 163.03 290.05
  A 0.43 0.42 -22.3 0 0 162.57 289.86
  Q 160.84 290.29 158.71 289.69
  Q 158.20 289.54 157.78 289.87
  Q 156.52 290.86 155.36 289.78
  A 1.35 1.35 0.0 0 0 154.52 289.44
  Q 153.20 289.41 151.96 289.95
  Q 151.44 290.17 151.03 289.78
  Q 150.47 289.26 149.97 289.80
  Q 149.58 290.22 149.08 289.92
  L 147.23 288.81
  A 0.90 0.88 -43.2 0 0 146.35 288.79
  C 144.67 289.67 143.31 288.78 141.71 288.51
  A 0.73 0.71 -70.4 0 0 140.97 288.87
  Q 140.74 289.27 140.24 289.36
  Q 139.79 289.44 139.58 289.84
  Q 139.10 290.74 137.76 290.08"
/>
<path stroke="#b0a732" vector-effect="non-scaling-stroke" d="
  M 137.76 290.08
  Q 148.93 280.47 152.97 275.46
  Q 156.60 270.96 165.46 256.02
  Q 171.04 246.62 175.22 231.32"
/>
<path stroke="#404184" vector-effect="non-scaling-stroke" d="
  M 305.37 285.88
  Q 311.05 295.33 315.60 300.39
  C 322.67 308.25 329.02 316.54 339.07 322.22
  Q 342.04 323.91 344.44 325.56
  Q 350.58 329.78 355.44 330.58"
/>
<path stroke="#341841" vector-effect="non-scaling-stroke" d="
  M 403.92 338.54
  Q 394.85 352.68 376.74 353.32
  Q 373.93 353.41 371.16 353.40
  Q 368.38 353.38 365.59 352.70
  Q 341.49 346.79 324.50 329.18
  Q 316.16 320.53 310.11 312.15
  Q 301.37 300.06 292.76 287.85
  C 288.45 281.75 283.58 275.89 279.41 269.33
  Q 276.68 265.02 272.81 260.11
  Q 266.25 251.78 259.59 241.37
  C 256.93 237.21 253.32 234.14 250.94 229.70
  A 1.10 1.10 0.0 0 0 249.07 229.57
  C 247.95 231.11 247.28 232.91 246.12 234.43
  Q 242.12 239.68 238.56 245.26
  C 235.51 250.05 232.16 254.88 228.71 259.42
  C 223.54 266.20 219.02 273.36 213.86 280.02
  C 205.88 290.32 198.27 301.31 190.93 311.45
  C 185.43 319.05 178.84 326.92 172.05 333.26
  Q 162.75 341.95 150.28 347.54
  Q 137.35 353.34 124.96 353.33"
/>
<path stroke="#736636" vector-effect="non-scaling-stroke" d="
  M 94.98 315.47
  Q 98.19 328.29 109.32 332.86
  C 120.12 337.29 133.06 335.46 143.71 331.32"
/>
<path stroke="#6a4e2d" vector-effect="non-scaling-stroke" d="
  M 143.71 331.32
  Q 149.77 329.29 155.09 326.08
  Q 159.45 323.44 163.81 320.90
  Q 165.89 319.69 172.28 314.09
  C 176.74 310.17 180.61 305.17 184.84 300.57
  Q 186.12 299.17 190.00 293.12"
/>
<path stroke="#b79e2f" vector-effect="non-scaling-stroke" d="
  M 137.76 290.08
  Q 128.79 298.50 121.38 301.37
  C 114.39 304.08 107.79 307.14 100.78 308.44
  A 1.62 1.62 0.0 0 0 99.63 310.76
  Q 102.86 317.12 108.43 321.05
  C 114.85 325.59 120.97 328.28 128.68 329.83
  Q 135.82 331.27 138.50 331.15
  Q 142.43 330.98 143.71 331.32"
/>
<path stroke="#a18ca6" vector-effect="non-scaling-stroke" d="
  M 146.45 408.44
  C 139.74 411.27 132.40 408.17 130.87 400.92
  Q 129.28 393.40 134.18 387.99
  Q 136.26 385.69 139.19 385.47
  Q 145.52 385.00 149.43 387.74
  Q 152.07 389.59 153.48 386.69
  Q 153.69 386.25 153.77 385.77
  Q 154.15 383.40 152.05 382.22
  Q 141.27 376.18 132.93 381.04
  C 127.18 384.39 123.51 388.97 122.97 395.90
  C 121.70 411.97 139.04 421.66 152.23 412.53
  Q 154.13 411.22 153.69 408.94
  L 153.47 407.82
  Q 152.97 405.31 150.68 406.47
  Q 148.56 407.54 146.45 408.44"
/>
<path stroke="#a18ca6" vector-effect="non-scaling-stroke" d="
  M 250.28 405.00
  Q 249.95 405.83 249.62 405.00
  L 240.40 381.36
  Q 239.29 378.54 236.39 379.41
  L 235.68 379.62
  A 2.71 2.71 0.0 0 0 234.01 383.38
  Q 236.99 389.68 238.75 395.07
  C 241.00 401.97 243.91 408.08 246.75 414.50
  C 247.56 416.35 250.13 415.78 251.72 415.71
  A 1.38 1.37 -78.2 0 0 252.91 414.93
  C 255.88 408.84 258.88 402.79 260.92 396.13
  Q 262.91 389.67 265.50 383.80
  Q 266.64 381.25 264.11 380.04
  Q 263.84 379.91 263.41 379.70
  Q 260.92 378.52 259.90 381.07
  L 250.28 405.00"
/>
<path stroke="#a18ca6" vector-effect="non-scaling-stroke" d="
  M 164.50 391.31
  L 164.67 382.95
  Q 164.72 380.41 162.30 379.59
  Q 161.74 379.40 161.16 379.43
  Q 157.84 379.56 157.83 382.89
  L 157.76 412.15
  Q 157.75 415.34 160.92 415.74
  Q 161.45 415.80 161.97 415.71
  Q 164.47 415.24 164.49 412.70
  Q 164.55 406.69 164.50 400.71
  C 164.43 392.33 174.10 393.05 174.20 400.08
  Q 174.28 406.15 174.09 412.37
  A 2.91 2.88 24.5 0 0 174.88 414.45
  Q 176.44 416.10 177.84 415.79
  Q 180.43 415.22 180.48 412.57
  Q 180.59 407.82 180.70 401.44
  C 180.82 394.18 177.28 388.16 169.17 389.66
  C 167.75 389.92 166.43 390.87 165.26 391.71
  Q 164.48 392.28 164.50 391.31"
/>
<path stroke="#a18ca6" vector-effect="non-scaling-stroke" d="
  M 223.53 389.12
  C 223.45 386.87 224.30 383.63 221.35 382.68
  C 217.70 381.51 217.16 385.57 217.47 388.10
  Q 217.74 390.31 215.57 389.78
  Q 212.76 389.10 212.53 391.47
  Q 212.16 395.26 216.42 395.02
  A 0.81 0.81 0.0 0 1 217.27 395.84
  Q 217.18 401.74 217.32 407.72
  C 217.39 410.82 218.58 414.63 222.04 415.34
  Q 226.86 416.34 231.16 415.30
  Q 232.98 414.86 232.99 412.98
  L 233.00 411.84
  Q 233.01 409.97 231.14 410.04
  C 228.94 410.12 223.84 411.42 223.66 407.68
  Q 223.41 402.64 223.54 395.76
  Q 223.55 395.20 224.11 395.21
  L 230.90 395.26
  Q 232.58 395.28 232.52 393.60
  L 232.43 391.54
  Q 232.36 389.81 230.63 389.80
  L 224.20 389.77
  Q 223.55 389.76 223.53 389.12"
/>
<path stroke="#a18ca6" vector-effect="non-scaling-stroke" d="
  M 350.06 404.75
  L 368.47 404.76
  A 0.71 0.70 6.7 0 0 369.16 404.22
  Q 370.23 399.60 367.69 395.59
  C 366.34 393.46 364.43 390.98 361.98 390.12
  C 354.02 387.31 344.30 391.25 343.25 400.33
  C 342.25 408.94 346.05 414.41 354.28 415.73
  C 359.28 416.54 363.44 415.89 367.46 413.13
  Q 368.90 412.14 368.16 410.55
  L 367.58 409.30
  Q 366.76 407.56 365.06 408.45
  C 360.41 410.87 352.16 411.41 349.59 405.47
  Q 349.28 404.75 350.06 404.75"
/>
<path stroke="#a18ca6" vector-effect="non-scaling-stroke" d="
  M 202.21 412.74
  L 202.42 414.13
  Q 202.53 414.83 203.20 415.07
  Q 205.69 415.94 207.98 414.92
  Q 208.68 414.61 208.71 413.85
  Q 209.08 405.19 208.52 398.64
  C 207.56 387.50 195.27 388.23 187.69 391.41
  Q 186.54 391.90 187.05 393.04
  L 187.97 395.07
  Q 188.38 395.98 189.33 395.66
  C 193.99 394.05 202.01 392.70 202.21 400.07
  Q 202.24 401.11 201.24 400.83
  C 197.40 399.74 191.66 399.33 188.22 401.67
  C 181.94 405.95 185.45 414.89 192.36 415.84
  Q 197.86 416.60 201.58 412.55
  Q 202.10 411.98 202.21 412.74"
/>
<path stroke="#a18ca6" vector-effect="non-scaling-stroke" d="
  M 275.01 404.76
  L 292.08 404.74
  A 1.13 1.12 -85.5 0 0 293.19 403.79
  C 294.61 394.81 286.31 388.30 277.85 389.66
  C 262.64 392.10 262.50 413.44 278.10 415.67
  Q 285.96 416.79 291.06 413.24
  A 2.12 2.10 -6.4 0 0 291.76 412.37
  C 292.70 410.08 290.62 407.87 288.37 408.84
  Q 285.19 410.21 281.11 410.28
  Q 278.27 410.33 276.18 408.41
  Q 275.23 407.53 274.27 406.66
  Q 272.21 404.76 275.01 404.76"
/>
<path stroke="#a18ca6" vector-effect="non-scaling-stroke" d="
  M 304.97 392.70
  Q 304.18 393.51 304.07 392.38
  C 303.63 387.89 298.07 389.02 298.02 393.00
  Q 297.93 401.48 298.03 412.32
  Q 298.06 415.00 301.07 415.78
  Q 301.52 415.90 301.96 415.76
  Q 304.29 415.03 304.34 413.44
  Q 304.52 408.45 304.57 402.69
  Q 304.59 399.10 305.89 397.87
  Q 308.47 395.44 312.27 396.09
  Q 314.76 396.51 314.71 393.99
  L 314.66 391.87
  Q 314.60 389.39 312.12 389.42
  Q 308.15 389.48 304.97 392.70"
/>
<path stroke="#a18ca6" vector-effect="non-scaling-stroke" d="
  M 326.16 398.86
  A 2.09 2.09 0.0 0 1 325.50 395.10
  C 328.15 393.33 331.78 394.72 334.48 395.89
  C 336.06 396.58 337.84 395.68 338.69 394.34
  A 0.71 0.70 -43.0 0 0 338.72 393.65
  C 336.74 389.69 330.55 389.43 326.66 389.58
  C 318.51 389.89 314.19 400.66 323.27 403.91
  Q 327.00 405.25 331.01 406.33
  A 1.96 1.96 0.0 0 1 331.66 409.79
  C 328.93 411.80 324.57 410.05 322.01 408.31
  A 3.01 2.73 29.7 0 0 317.71 409.26
  Q 317.61 409.47 317.53 409.70
  Q 316.86 411.71 318.57 412.97
  Q 323.91 416.90 332.48 415.57
  Q 337.33 414.82 339.09 410.69
  C 341.46 405.13 337.00 401.58 332.11 400.34
  Q 329.03 399.56 326.16 398.86"
/>
<path stroke="#a18ca6" vector-effect="non-scaling-stroke" d="
  M 349.69 399.98
  L 363.51 400.00
  A 0.01 0.01 0.0 0 0 363.52 399.99
  L 363.52 399.94
  A 6.80 5.50 0.1 0 0 356.72 394.43
  L 356.48 394.43
  A 6.80 5.50 0.1 0 0 349.68 399.92
  L 349.68 399.97
  A 0.01 0.01 0.0 0 0 349.69 399.98"
/>
<path stroke="#a18ca6" vector-effect="non-scaling-stroke" d="
  M 202.0441 406.8289
  A 5.21 3.58 -8.4 0 0 196.3670 404.0484
  A 5.21 3.58 -8.4 0 0 191.7359 408.3511
  A 5.21 3.58 -8.4 0 0 197.4130 411.1316
  A 5.21 3.58 -8.4 0 0 202.0441 406.8289"
/>
<path stroke="#a18ca6" vector-effect="non-scaling-stroke" d="
  M 273.77 400.03
  L 286.61 400.07
  A 0.02 0.02 0.0 0 0 286.63 400.05
  L 286.63 399.99
  A 6.31 5.50 0.2 0 0 280.34 394.47
  L 280.08 394.47
  A 6.31 5.50 0.2 0 0 273.75 399.95
  L 273.75 400.01
  A 0.02 0.02 0.0 0 0 273.77 400.03"
/>
</g>
<path fill="#232453" d="
  M 96.12 0.00
  L 404.03 0.00
  Q 406.36 0.52 415.03 2.18
  C 451.00 9.08 484.59 35.99 494.38 72.33
  L 491.56 67.77
  Q 491.33 67.40 490.94 67.61
  Q 489.90 68.16 488.76 67.95
  Q 488.40 67.89 488.09 67.69
  Q 487.85 67.54 487.59 67.65
  Q 487.06 67.89 486.56 67.58
  Q 485.30 66.78 483.91 66.34
  Q 482.51 65.89 481.15 65.16
  Q 479.38 64.23 477.50 63.77
  Q 477.10 63.68 476.82 63.39
  Q 476.39 62.95 475.77 63.10
  Q 475.26 63.21 474.76 63.10
  Q 471.80 62.39 468.75 62.64
  Q 468.55 62.66 468.37 62.58
  Q 468.10 62.46 468.19 62.18
  A 0.22 0.22 0.0 0 0 468.01 61.90
  Q 466.82 61.77 465.79 61.27
  Q 465.51 61.14 465.20 61.13
  Q 464.02 61.12 462.79 60.82
  Q 460.26 60.23 457.03 60.55
  A 1.84 1.83 -32.9 0 1 455.98 60.33
  Q 455.05 59.81 454.06 59.64
  C 451.95 59.28 450.79 60.96 448.53 60.17
  Q 448.02 60.00 447.55 60.26
  Q 446.72 60.72 445.94 60.29
  Q 445.60 60.11 445.25 60.27
  Q 444.07 60.84 442.47 60.70
  Q 442.11 60.67 442.02 60.31
  Q 441.92 59.87 441.47 59.81
  L 434.19 58.74
  Q 433.85 58.69 433.68 58.40
  Q 433.58 58.23 433.63 58.04
  Q 433.74 57.57 433.34 57.30
  Q 432.77 56.92 432.19 57.34
  Q 431.81 57.60 431.85 58.06
  Q 431.93 59.05 430.94 59.23
  Q 430.66 59.28 430.63 59.56
  Q 430.61 59.71 430.61 59.87
  Q 430.64 60.48 430.04 60.60
  Q 426.04 61.35 422.16 60.66
  Q 421.61 60.56 421.64 60.00
  Q 421.66 59.50 421.17 59.38
  Q 419.53 58.94 417.53 58.85
  A 0.69 0.68 1.8 0 1 416.88 58.17
  L 416.88 57.76
  Q 416.88 57.35 416.48 57.35
  Q 409.32 57.24 402.38 57.38
  Q 400.11 57.42 397.32 56.96
  Q 395.02 56.58 392.28 56.50
  C 391.00 56.47 390.01 55.67 388.67 55.93
  Q 386.32 56.38 384.21 56.00
  Q 381.68 55.53 379.30 55.60
  Q 377.03 55.68 374.60 54.99
  Q 370.45 53.82 365.54 54.35
  Q 364.06 54.51 362.66 54.17
  Q 361.00 53.77 359.39 53.93
  Q 357.51 54.12 355.48 53.73
  Q 352.31 53.12 348.99 53.61
  Q 348.70 53.66 348.49 53.42
  A 0.61 0.60 70.5 0 0 348.10 53.23
  Q 340.59 52.46 333.03 53.01
  C 332.08 53.08 330.95 52.90 329.94 53.03
  C 328.38 53.24 326.99 52.61 325.47 52.99
  A 1.69 1.68 47.2 0 1 324.52 52.95
  Q 322.77 52.36 321.13 52.91
  A 0.60 0.59 -87.2 0 1 320.40 52.10
  Q 320.80 51.21 320.02 50.36
  A 0.95 0.95 0.0 0 0 319.04 50.10
  Q 317.55 50.59 316.45 49.38
  Q 315.93 48.81 316.69 48.90
  Q 317.54 48.99 318.29 48.64
  Q 318.73 48.44 319.15 48.65
  Q 319.73 48.94 320.29 48.54
  Q 320.84 48.15 320.18 48.03
  Q 314.49 47.00 312.99 47.46
  Q 310.14 48.33 306.99 47.38
  Q 304.78 46.72 303.88 48.22
  Q 303.62 48.65 303.14 48.77
  Q 300.69 49.40 298.47 48.54
  Q 298.02 48.36 297.54 48.45
  L 289.53 49.85
  Q 289.16 49.91 288.81 49.75
  Q 288.42 49.56 288.22 49.87
  Q 287.88 50.37 287.29 50.37
  L 280.38 50.37
  A 0.68 0.68 0.0 0 1 279.81 50.06
  Q 279.52 49.64 279.69 49.22
  Q 280.03 48.38 279.13 48.35
  Q 268.11 47.97 256.71 48.45
  Q 256.20 48.47 255.98 48.94
  Q 255.92 49.07 255.84 49.17
  Q 255.50 49.59 254.97 49.58
  L 240.85 49.40
  Q 240.33 49.40 240.03 48.97
  Q 239.76 48.59 239.62 48.12
  Q 239.53 47.83 239.28 48.00
  Q 238.35 48.59 237.29 48.41
  Q 235.20 48.04 233.29 48.09
  Q 233.01 48.10 232.85 47.86
  L 232.60 47.48
  Q 232.35 47.08 231.88 47.05
  Q 224.54 46.46 217.00 46.51
  Q 190.68 46.69 164.37 46.60
  Q 163.62 46.60 164.12 47.15
  Q 164.27 47.32 164.06 47.58
  Q 163.71 48.02 163.15 47.98
  Q 161.97 47.92 160.87 47.89
  Q 160.39 47.88 160.36 48.36
  Q 160.25 49.81 158.75 50.14
  Q 151.99 51.60 145.58 49.46
  Q 145.10 49.30 144.84 48.86
  Q 144.59 48.44 144.49 47.96
  Q 144.41 47.56 144.02 47.71
  Q 142.72 48.23 141.74 47.24
  Q 141.49 46.98 141.23 47.23
  Q 141.04 47.42 140.76 47.42
  Q 140.24 47.41 139.82 47.09
  Q 139.33 46.71 138.71 46.86
  A 0.39 0.34 34.6 0 1 138.54 46.88
  Q 138.15 46.86 138.17 46.61
  Q 138.26 45.71 137.91 46.54
  Q 137.85 46.69 137.71 46.78
  Q 137.32 47.01 137.14 46.59
  Q 136.92 46.07 136.45 45.85
  A 0.25 0.25 0.0 0 0 136.11 46.17
  Q 136.22 46.46 136.02 46.69
  Q 135.72 47.03 135.29 46.88
  Q 134.27 46.55 134.11 47.58
  A 0.22 0.22 0.0 0 1 133.79 47.74
  Q 133.25 47.46 132.70 47.73
  Q 131.59 48.29 131.01 47.27
  A 0.19 0.19 0.0 0 0 130.69 47.25
  Q 130.51 47.53 130.15 47.13
  A 0.54 0.53 -53.4 0 1 130.07 46.55
  Q 130.30 46.04 130.66 46.13
  Q 131.09 46.25 130.73 45.98
  Q 130.58 45.86 130.40 45.89
  Q 129.31 46.08 128.68 46.85
  Q 127.98 47.71 126.93 47.95
  Q 125.79 48.20 124.50 47.84
  Q 122.30 47.21 120.13 47.04
  Q 119.97 47.03 119.88 46.89
  Q 119.80 46.76 119.71 46.63
  Q 119.53 46.34 119.21 46.24
  Q 117.85 45.82 116.45 46.13
  Q 114.51 46.56 113.88 46.59
  Q 110.39 46.78 106.94 47.55
  Q 102.62 48.51 99.95 48.62
  Q 91.87 48.93 84.34 48.94
  Q 83.79 48.94 82.19 49.17
  Q 81.10 49.33 79.97 49.15
  Q 79.49 49.08 79.04 49.27
  Q 77.53 49.93 75.87 49.69
  Q 75.20 49.59 74.75 50.11
  A 0.46 0.45 33.4 0 1 74.20 50.22
  Q 73.40 49.81 72.75 50.39
  A 1.34 1.30 19.3 0 1 72.10 50.69
  Q 70.13 50.97 69.07 52.58
  Q 68.79 53.00 68.33 52.82
  Q 68.15 52.75 68.13 52.52
  A 0.49 0.48 -1.3 0 0 67.67 52.09
  Q 66.50 52.02 65.48 52.48
  Q 65.03 52.67 64.57 52.50
  Q 62.51 51.73 60.60 51.73
  Q 59.30 51.74 58.77 52.96
  A 0.61 0.61 0.0 0 1 58.05 53.30
  Q 54.54 52.38 49.88 53.40
  C 48.31 53.75 46.79 53.13 45.32 54.02
  Q 42.77 55.56 39.92 55.81
  Q 37.37 56.04 34.91 56.04
  Q 32.27 56.04 34.03 54.06
  Q 35.45 52.47 36.77 50.53
  Q 37.22 49.88 36.43 50.00
  Q 34.53 50.31 32.38 50.40
  Q 32.01 50.42 31.73 50.21
  Q 31.57 50.10 31.53 49.90
  Q 31.42 49.36 30.87 49.43
  Q 28.77 49.70 27.42 48.69
  Q 27.01 48.38 26.50 48.40
  L 24.05 48.48
  A 1.01 0.92 55.8 0 1 23.55 48.36
  Q 23.03 48.08 22.48 48.34
  Q 19.46 49.73 16.50 48.95
  Q 39.64 13.72 80.34 3.19
  C 84.86 2.02 90.87 1.37 96.12 0.00
  Z"
/>
<path fill="#2c2250" d="
  M 494.38 72.33
  C 496.99 80.67 498.28 89.09 500.00 96.37
  L 500.00 167.81
  Q 499.79 168.98 499.08 169.52
  Q 498.53 169.95 497.38 169.73
  Q 491.15 168.56 484.56 168.06
  Q 483.75 168.00 481.24 168.66
  Q 480.76 168.78 480.30 168.59
  C 478.99 168.02 477.46 167.59 476.05 168.07
  Q 473.75 168.86 471.63 168.28
  Q 469.95 167.82 468.10 168.34
  Q 466.15 168.89 464.00 168.09
  Q 463.56 167.93 463.22 168.24
  Q 462.84 168.59 462.32 168.59
  L 458.73 168.65
  Q 458.26 168.66 457.83 168.46
  Q 457.15 168.15 456.41 168.49
  A 1.05 1.04 -45.3 0 1 455.59 168.50
  L 455.06 168.27
  A 1.01 0.98 44.2 0 0 454.25 168.27
  Q 452.71 168.96 451.56 168.52
  Q 450.48 168.11 449.22 168.04
  Q 442.01 167.64 434.99 168.11
  Q 433.45 168.21 431.92 168.00
  Q 430.44 167.79 429.00 167.87
  Q 418.98 168.39 407.89 168.62
  Q 406.08 168.66 404.29 168.81
  Q 402.08 169.00 400.07 168.69
  Q 399.60 168.62 399.17 168.83
  Q 398.69 169.07 398.19 168.97
  Q 397.51 168.84 396.82 168.88
  Q 394.18 169.05 391.56 168.67
  Q 390.26 168.48 388.94 168.50
  Q 387.61 168.51 386.32 168.36
  Q 386.08 168.33 382.72 168.34
  Q 380.85 168.34 379.30 167.48
  Q 378.86 167.24 378.37 167.23
  Q 373.42 167.16 368.06 165.07
  A 1.49 1.47 45.3 0 0 367.02 165.06
  Q 365.79 165.52 366.36 166.08
  A 0.87 0.87 0.0 0 1 366.43 167.25
  Q 366.08 167.69 366.37 168.15
  Q 366.53 168.40 366.29 168.60
  Q 365.46 169.29 366.26 170.34
  Q 367.63 172.13 366.12 171.58
  Q 362.86 159.36 358.46 147.50
  Q 355.73 140.16 350.36 135.49
  C 344.16 130.10 337.63 126.76 329.46 126.13
  C 316.32 125.13 303.98 131.17 296.47 142.62
  Q 290.53 151.68 284.74 159.66
  C 282.34 162.98 280.39 166.69 278.15 170.28
  Q 266.76 185.16 262.50 191.98
  Q 257.27 200.36 251.75 208.53
  Q 251.27 209.24 250.85 210.30
  Q 250.42 210.28 249.75 210.55
  Q 249.92 209.56 249.58 208.99
  C 246.02 203.17 241.54 197.38 237.87 191.63
  Q 232.27 182.84 227.05 175.74
  Q 222.57 169.63 219.10 164.71
  Q 211.71 153.19 204.38 143.38
  Q 199.81 137.25 195.60 133.87
  C 184.70 125.11 167.72 123.16 155.20 131.28
  C 147.24 136.43 143.08 141.43 140.24 150.76
  Q 135.45 166.52 134.17 171.42
  Q 132.84 172.54 132.32 174.44
  Q 132.13 175.17 131.90 174.45
  Q 131.78 174.07 131.72 173.67
  Q 131.64 173.13 131.12 173.25
  Q 128.30 173.89 125.59 172.78
  Q 125.09 172.58 125.01 173.12
  Q 124.90 173.84 124.14 173.71
  Q 123.63 173.62 124.07 173.35
  Q 124.20 173.27 123.95 173.08
  Q 123.84 172.99 123.69 172.99
  Q 120.46 172.94 117.23 172.85
  Q 117.00 172.84 116.81 172.94
  Q 116.52 173.09 116.56 173.40
  Q 116.62 173.96 116.36 173.46
  Q 116.28 173.29 116.30 173.10
  Q 116.36 172.66 115.98 172.89
  Q 115.85 172.96 115.90 173.11
  Q 116.06 173.57 115.59 173.70
  Q 114.62 173.96 114.31 173.24
  Q 114.10 172.77 113.61 172.67
  L 94.01 168.65
  A 0.80 0.30 24.7 0 0 93.88 168.64
  Q 90.68 168.76 87.51 168.51
  Q 85.97 168.38 83.91 169.52
  A 1.17 1.14 39.0 0 1 82.96 169.61
  Q 80.65 168.84 78.23 168.96
  Q 77.21 169.01 76.29 169.48
  Q 75.76 169.75 75.16 169.66
  Q 72.54 169.23 69.84 169.70
  Q 67.25 170.15 64.66 170.19
  Q 59.31 170.27 53.70 170.45
  Q 51.17 170.54 48.06 170.20
  Q 47.56 170.15 47.30 170.62
  Q 47.00 171.18 47.07 170.55
  Q 47.11 170.23 46.80 170.17
  Q 46.72 170.15 46.63 170.17
  Q 46.50 170.21 46.39 170.28
  Q 46.15 170.43 45.87 170.39
  Q 42.58 169.95 39.17 169.82
  Q 36.79 169.72 34.33 169.34
  Q 31.80 168.94 29.20 169.18
  Q 28.27 169.27 27.34 168.95
  Q 25.96 168.48 24.57 168.73
  Q 23.07 168.99 21.64 168.80
  Q 19.25 168.47 16.76 168.77
  Q 14.79 169.01 12.85 168.95
  Q 10.96 168.89 8.90 169.14
  Q 7.01 169.36 2.23 168.22
  A 1.34 1.30 -12.6 0 1 1.48 167.76
  Q -0.10 165.79 0.72 162.00
  Q 1.27 159.51 0.00 158.69
  L 0.00 97.48
  Q 1.27 91.63 2.44 85.78
  C 5.00 72.90 9.40 60.09 16.50 48.95
  Q 19.46 49.73 22.48 48.34
  Q 23.03 48.08 23.55 48.36
  A 1.01 0.92 55.8 0 0 24.05 48.48
  L 26.50 48.40
  Q 27.01 48.38 27.42 48.69
  Q 28.77 49.70 30.87 49.43
  Q 31.42 49.36 31.53 49.90
  Q 31.57 50.10 31.73 50.21
  Q 32.01 50.42 32.38 50.40
  Q 34.53 50.31 36.43 50.00
  Q 37.22 49.88 36.77 50.53
  Q 35.45 52.47 34.03 54.06
  Q 32.27 56.04 34.91 56.04
  Q 37.37 56.04 39.92 55.81
  Q 42.77 55.56 45.32 54.02
  C 46.79 53.13 48.31 53.75 49.88 53.40
  Q 54.54 52.38 58.05 53.30
  A 0.61 0.61 0.0 0 0 58.77 52.96
  Q 59.30 51.74 60.60 51.73
  Q 62.51 51.73 64.57 52.50
  Q 65.03 52.67 65.48 52.48
  Q 66.50 52.02 67.67 52.09
  A 0.49 0.48 -1.3 0 1 68.13 52.52
  Q 68.15 52.75 68.33 52.82
  Q 68.79 53.00 69.07 52.58
  Q 70.13 50.97 72.10 50.69
  A 1.34 1.30 19.3 0 0 72.75 50.39
  Q 73.40 49.81 74.20 50.22
  A 0.46 0.45 33.4 0 0 74.75 50.11
  Q 75.20 49.59 75.87 49.69
  Q 77.53 49.93 79.04 49.27
  Q 79.49 49.08 79.97 49.15
  Q 81.10 49.33 82.19 49.17
  Q 83.79 48.94 84.34 48.94
  Q 91.87 48.93 99.95 48.62
  Q 102.62 48.51 106.94 47.55
  Q 110.39 46.78 113.88 46.59
  Q 114.51 46.56 116.45 46.13
  Q 117.85 45.82 119.21 46.24
  Q 119.53 46.34 119.71 46.63
  Q 119.80 46.76 119.88 46.89
  Q 119.97 47.03 120.13 47.04
  Q 122.30 47.21 124.50 47.84
  Q 125.79 48.20 126.93 47.95
  Q 127.98 47.71 128.68 46.85
  Q 129.31 46.08 130.40 45.89
  Q 130.58 45.86 130.73 45.98
  Q 131.09 46.25 130.66 46.13
  Q 130.30 46.04 130.07 46.55
  A 0.54 0.53 -53.4 0 0 130.15 47.13
  Q 130.51 47.53 130.69 47.25
  A 0.19 0.19 0.0 0 1 131.01 47.27
  Q 131.59 48.29 132.70 47.73
  Q 133.25 47.46 133.79 47.74
  A 0.22 0.22 0.0 0 0 134.11 47.58
  Q 134.27 46.55 135.29 46.88
  Q 135.72 47.03 136.02 46.69
  Q 136.22 46.46 136.11 46.17
  A 0.25 0.25 0.0 0 1 136.45 45.85
  Q 136.92 46.07 137.14 46.59
  Q 137.32 47.01 137.71 46.78
  Q 137.85 46.69 137.91 46.54
  Q 138.26 45.71 138.17 46.61
  Q 138.15 46.86 138.54 46.88
  A 0.39 0.34 34.6 0 0 138.71 46.86
  Q 139.33 46.71 139.82 47.09
  Q 140.24 47.41 140.76 47.42
  Q 141.04 47.42 141.23 47.23
  Q 141.49 46.98 141.74 47.24
  Q 142.72 48.23 144.02 47.71
  Q 144.41 47.56 144.49 47.96
  Q 144.59 48.44 144.84 48.86
  Q 145.10 49.30 145.58 49.46
  Q 151.99 51.60 158.75 50.14
  Q 160.25 49.81 160.36 48.36
  Q 160.39 47.88 160.87 47.89
  Q 161.97 47.92 163.15 47.98
  Q 163.71 48.02 164.06 47.58
  Q 164.27 47.32 164.12 47.15
  Q 163.62 46.60 164.37 46.60
  Q 190.68 46.69 217.00 46.51
  Q 224.54 46.46 231.88 47.05
  Q 232.35 47.08 232.60 47.48
  L 232.85 47.86
  Q 233.01 48.10 233.29 48.09
  Q 235.20 48.04 237.29 48.41
  Q 238.35 48.59 239.28 48.00
  Q 239.53 47.83 239.62 48.12
  Q 239.76 48.59 240.03 48.97
  Q 240.33 49.40 240.85 49.40
  L 254.97 49.58
  Q 255.50 49.59 255.84 49.17
  Q 255.92 49.07 255.98 48.94
  Q 256.20 48.47 256.71 48.45
  Q 268.11 47.97 279.13 48.35
  Q 280.03 48.38 279.69 49.22
  Q 279.52 49.64 279.81 50.06
  A 0.68 0.68 0.0 0 0 280.38 50.37
  L 287.29 50.37
  Q 287.88 50.37 288.22 49.87
  Q 288.42 49.56 288.81 49.75
  Q 289.16 49.91 289.53 49.85
  L 297.54 48.45
  Q 298.02 48.36 298.47 48.54
  Q 300.69 49.40 303.14 48.77
  Q 303.62 48.65 303.88 48.22
  Q 304.78 46.72 306.99 47.38
  Q 310.14 48.33 312.99 47.46
  Q 314.49 47.00 320.18 48.03
  Q 320.84 48.15 320.29 48.54
  Q 319.73 48.94 319.15 48.65
  Q 318.73 48.44 318.29 48.64
  Q 317.54 48.99 316.69 48.90
  Q 315.93 48.81 316.45 49.38
  Q 317.55 50.59 319.04 50.10
  A 0.95 0.95 0.0 0 1 320.02 50.36
  Q 320.80 51.21 320.40 52.10
  A 0.60 0.59 -87.2 0 0 321.13 52.91
  Q 322.77 52.36 324.52 52.95
  A 1.69 1.68 47.2 0 0 325.47 52.99
  C 326.99 52.61 328.38 53.24 329.94 53.03
  C 330.95 52.90 332.08 53.08 333.03 53.01
  Q 340.59 52.46 348.10 53.23
  A 0.61 0.60 70.5 0 1 348.49 53.42
  Q 348.70 53.66 348.99 53.61
  Q 352.31 53.12 355.48 53.73
  Q 357.51 54.12 359.39 53.93
  Q 361.00 53.77 362.66 54.17
  Q 364.06 54.51 365.54 54.35
  Q 370.45 53.82 374.60 54.99
  Q 377.03 55.68 379.30 55.60
  Q 381.68 55.53 384.21 56.00
  Q 386.32 56.38 388.67 55.93
  C 390.01 55.67 391.00 56.47 392.28 56.50
  Q 395.02 56.58 397.32 56.96
  Q 400.11 57.42 402.38 57.38
  Q 409.32 57.24 416.48 57.35
  Q 416.88 57.35 416.88 57.76
  L 416.88 58.17
  A 0.69 0.68 1.8 0 0 417.53 58.85
  Q 419.53 58.94 421.17 59.38
  Q 421.66 59.50 421.64 60.00
  Q 421.61 60.56 422.16 60.66
  Q 426.04 61.35 430.04 60.60
  Q 430.64 60.48 430.61 59.87
  Q 430.61 59.71 430.63 59.56
  Q 430.66 59.28 430.94 59.23
  Q 431.93 59.05 431.85 58.06
  Q 431.81 57.60 432.19 57.34
  Q 432.77 56.92 433.34 57.30
  Q 433.74 57.57 433.63 58.04
  Q 433.58 58.23 433.68 58.40
  Q 433.85 58.69 434.19 58.74
  L 441.47 59.81
  Q 441.92 59.87 442.02 60.31
  Q 442.11 60.67 442.47 60.70
  Q 444.07 60.84 445.25 60.27
  Q 445.60 60.11 445.94 60.29
  Q 446.72 60.72 447.55 60.26
  Q 448.02 60.00 448.53 60.17
  C 450.79 60.96 451.95 59.28 454.06 59.64
  Q 455.05 59.81 455.98 60.33
  A 1.84 1.83 -32.9 0 0 457.03 60.55
  Q 460.26 60.23 462.79 60.82
  Q 464.02 61.12 465.20 61.13
  Q 465.51 61.14 465.79 61.27
  Q 466.82 61.77 468.01 61.90
  A 0.22 0.22 0.0 0 1 468.19 62.18
  Q 468.10 62.46 468.37 62.58
  Q 468.55 62.66 468.75 62.64
  Q 471.80 62.39 474.76 63.10
  Q 475.26 63.21 475.77 63.10
  Q 476.39 62.95 476.82 63.39
  Q 477.10 63.68 477.50 63.77
  Q 479.38 64.23 481.15 65.16
  Q 482.51 65.89 483.91 66.34
  Q 485.30 66.78 486.56 67.58
  Q 487.06 67.89 487.59 67.65
  Q 487.85 67.54 488.09 67.69
  Q 488.40 67.89 488.76 67.95
  Q 489.90 68.16 490.94 67.61
  Q 491.33 67.40 491.56 67.77
  L 494.38 72.33
  Z"
/>
<path fill="#7ad7f7" d="
  M 366.12 171.58
  L 371.14 186.67
  Q 368.55 187.39 366.25 187.15
  Q 359.51 186.45 352.75 186.02
  C 350.04 185.85 347.46 186.26 344.75 186.09
  Q 344.23 186.06 343.78 186.32
  Q 343.38 186.56 343.07 186.23
  Q 342.74 185.88 342.27 185.96
  Q 340.50 186.25 338.85 185.73
  Q 338.55 185.63 338.23 185.70
  Q 336.27 186.09 334.28 185.75
  Q 334.00 185.71 333.72 185.78
  Q 333.33 185.89 332.96 186.01
  Q 332.50 186.16 332.02 186.04
  Q 329.94 185.56 328.31 186.47
  Q 327.89 186.70 327.90 186.22
  Q 327.90 185.80 327.49 185.76
  Q 325.95 185.60 324.39 184.43
  C 327.31 177.30 329.67 170.74 325.31 163.36
  Q 322.12 157.97 317.67 155.91
  C 308.98 151.91 303.05 152.52 294.73 156.90
  C 290.87 158.93 287.41 162.08 284.20 165.13
  Q 283.71 165.59 281.65 168.16
  Q 280.05 170.16 278.15 170.28
  C 280.39 166.69 282.34 162.98 284.74 159.66
  Q 290.53 151.68 296.47 142.62
  C 303.98 131.17 316.32 125.13 329.46 126.13
  C 337.63 126.76 344.16 130.10 350.36 135.49
  Q 355.73 140.16 358.46 147.50
  Q 362.86 159.36 366.12 171.58
  Z"
/>
<path fill="#b1d548" d="
  M 219.10 164.71
  Q 211.40 157.75 202.93 155.10
  Q 197.06 153.26 192.06 154.02
  Q 185.57 155.01 181.37 157.81
  Q 173.36 163.15 173.31 172.44
  C 173.28 178.00 176.12 183.81 177.17 189.30
  Q 178.33 195.34 178.54 206.06
  Q 178.59 218.52 175.22 231.32
  Q 168.48 230.75 161.85 230.69
  Q 160.95 230.69 160.17 230.36
  Q 159.31 229.99 158.47 230.03
  Q 157.30 230.08 156.06 229.76
  Q 154.91 229.46 153.73 229.28
  Q 153.52 229.25 153.37 229.40
  L 153.10 229.67
  Q 152.80 229.96 152.42 229.79
  C 151.66 229.44 150.59 228.84 149.78 228.78
  Q 142.76 228.23 135.45 227.03
  Q 133.95 226.79 132.54 226.96
  Q 130.89 227.16 129.26 226.40
  Q 128.93 226.24 128.59 226.37
  Q 127.27 226.87 125.71 226.90
  Q 125.30 226.90 125.07 226.58
  Q 124.10 225.24 122.09 225.59
  Q 119.89 225.97 116.51 225.69
  L 134.17 171.42
  Q 135.45 166.52 140.24 150.76
  C 143.08 141.43 147.24 136.43 155.20 131.28
  C 167.72 123.16 184.70 125.11 195.60 133.87
  Q 199.81 137.25 204.38 143.38
  Q 211.71 153.19 219.10 164.71
  Z"
/>
<path fill="#559ed8" d="
  M 324.39 184.43
  Q 322.08 191.92 321.59 197.05
  Q 320.15 212.26 323.53 229.03
  C 325.06 236.61 328.11 242.90 331.12 249.88
  Q 320.15 251.50 309.08 250.47
  C 307.19 250.30 305.47 250.67 303.59 250.46
  Q 302.72 250.36 301.87 250.72
  Q 301.41 250.92 300.97 250.68
  L 300.15 250.24
  C 299.30 233.26 302.00 216.40 307.02 200.28
  Q 308.04 197.02 305.51 199.31
  Q 296.76 207.21 288.84 215.02
  Q 284.59 219.21 279.15 226.00
  Q 274.60 231.69 269.73 237.33
  L 250.85 210.30
  Q 251.27 209.24 251.75 208.53
  Q 257.27 200.36 262.50 191.98
  Q 266.76 185.16 278.15 170.28
  Q 280.05 170.16 281.65 168.16
  Q 283.71 165.59 284.20 165.13
  C 287.41 162.08 290.87 158.93 294.73 156.90
  C 303.05 152.52 308.98 151.91 317.67 155.91
  Q 322.12 157.97 325.31 163.36
  C 329.67 170.74 327.31 177.30 324.39 184.43
  Z"
/>
<path fill="#98b235" d="
  M 219.10 164.71
  Q 222.57 169.63 227.05 175.74
  Q 232.27 182.84 237.87 191.63
  C 241.54 197.38 246.02 203.17 249.58 208.99
  Q 249.92 209.56 249.75 210.55
  L 231.12 237.16
  Q 225.83 231.58 220.74 226.07
  Q 216.25 221.20 212.15 217.86
  Q 202.64 210.10 194.21 201.56
  A 0.77 0.76 -57.7 0 0 192.95 201.85
  Q 192.86 202.09 193.08 202.75
  Q 192.56 203.20 192.34 202.91
  Q 192.16 202.69 192.18 202.40
  Q 192.20 201.93 191.74 201.88
  Q 189.54 201.61 187.46 201.96
  Q 183.93 202.54 179.79 202.14
  Q 179.21 202.08 179.12 202.65
  L 178.54 206.06
  Q 178.33 195.34 177.17 189.30
  C 176.12 183.81 173.28 178.00 173.31 172.44
  Q 173.36 163.15 181.37 157.81
  Q 185.57 155.01 192.06 154.02
  Q 197.06 153.26 202.93 155.10
  Q 211.40 157.75 219.10 164.71
  Z"
/>
<path fill="#391e4d" d="
  M 134.17 171.42
  L 116.51 225.69
  C 114.90 230.56 113.75 235.87 112.26 240.37
  Q 102.68 269.15 98.24 283.24
  Q 93.17 299.33 94.98 315.47
  Q 91.51 322.99 93.15 330.99
  Q 94.75 338.80 100.94 344.84
  Q 103.34 347.18 108.06 349.59
  C 113.91 352.59 117.96 353.35 124.96 353.33
  L 121.96 353.54
  A 1.37 1.22 48.4 0 1 121.54 353.49
  Q 120.21 353.10 119.00 353.63
  Q 118.58 353.81 118.14 353.71
  Q 115.74 353.17 113.26 352.46
  Q 111.95 352.08 110.84 351.34
  Q 109.60 350.51 108.12 350.00
  Q 107.78 349.88 107.47 350.07
  Q 106.64 350.58 106.50 351.42
  Q 106.36 352.32 105.85 351.57
  Q 105.51 351.06 104.97 351.30
  Q 104.61 351.46 104.35 351.17
  Q 103.49 350.21 102.36 349.86
  Q 101.97 349.74 101.74 349.41
  Q 101.41 348.93 100.93 349.25
  Q 100.31 349.68 100.04 348.97
  Q 99.26 346.93 97.26 347.18
  Q 95.57 347.39 94.08 346.46
  Q 93.24 345.93 92.24 345.83
  Q 91.21 345.72 90.13 345.49
  Q 89.65 345.38 89.28 345.05
  Q 87.89 343.79 86.27 343.70
  Q 84.95 343.62 83.85 343.07
  A 2.10 1.92 -29.1 0 0 83.01 342.87
  Q 81.25 342.84 79.59 342.28
  Q 78.20 341.81 76.79 342.29
  C 74.36 343.11 72.47 341.82 70.18 342.37
  Q 69.31 342.58 68.49 342.78
  Q 67.37 343.06 65.73 342.91
  Q 64.01 342.75 62.29 343.03
  Q 60.64 343.31 59.01 343.29
  Q 56.25 343.26 53.59 343.23
  Q 48.79 343.19 42.90 341.88
  C 41.14 341.49 39.23 341.65 37.40 341.49
  Q 34.57 341.23 31.61 342.46
  Q 31.50 342.51 31.47 342.62
  Q 31.34 343.15 31.38 342.60
  Q 31.40 342.26 31.37 341.94
  Q 31.33 341.44 30.84 341.34
  Q 28.78 340.91 26.27 340.85
  Q 19.00 340.67 11.74 340.22
  Q 11.24 340.19 10.84 340.49
  Q 10.48 340.76 10.07 340.55
  Q 9.65 340.33 9.61 340.80
  Q 9.60 341.00 9.67 341.17
  A 0.38 0.38 0.0 0 1 9.31 341.69
  Q 8.74 341.68 8.88 341.12
  Q 9.06 340.43 8.35 340.43
  Q 6.67 340.44 5.29 339.78
  Q 4.66 339.48 3.90 339.56
  Q 2.60 339.69 2.26 340.61
  Q 2.02 341.24 1.56 340.74
  Q 0.02 339.06 0.00 340.63
  L 0.00 158.69
  Q 1.27 159.51 0.72 162.00
  Q -0.10 165.79 1.48 167.76
  A 1.34 1.30 -12.6 0 0 2.23 168.22
  Q 7.01 169.36 8.90 169.14
  Q 10.96 168.89 12.85 168.95
  Q 14.79 169.01 16.76 168.77
  Q 19.25 168.47 21.64 168.80
  Q 23.07 168.99 24.57 168.73
  Q 25.96 168.48 27.34 168.95
  Q 28.27 169.27 29.20 169.18
  Q 31.80 168.94 34.33 169.34
  Q 36.79 169.72 39.17 169.82
  Q 42.58 169.95 45.87 170.39
  Q 46.15 170.43 46.39 170.28
  Q 46.50 170.21 46.63 170.17
  Q 46.72 170.15 46.80 170.17
  Q 47.11 170.23 47.07 170.55
  Q 47.00 171.18 47.30 170.62
  Q 47.56 170.15 48.06 170.20
  Q 51.17 170.54 53.70 170.45
  Q 59.31 170.27 64.66 170.19
  Q 67.25 170.15 69.84 169.70
  Q 72.54 169.23 75.16 169.66
  Q 75.76 169.75 76.29 169.48
  Q 77.21 169.01 78.23 168.96
  Q 80.65 168.84 82.96 169.61
  A 1.17 1.14 39.0 0 0 83.91 169.52
  Q 85.97 168.38 87.51 168.51
  Q 90.68 168.76 93.88 168.64
  A 0.80 0.30 24.7 0 1 94.01 168.65
  L 113.61 172.67
  Q 114.10 172.77 114.31 173.24
  Q 114.62 173.96 115.59 173.70
  Q 116.06 173.57 115.90 173.11
  Q 115.85 172.96 115.98 172.89
  Q 116.36 172.66 116.30 173.10
  Q 116.28 173.29 116.36 173.46
  Q 116.62 173.96 116.56 173.40
  Q 116.52 173.09 116.81 172.94
  Q 117.00 172.84 117.23 172.85
  Q 120.46 172.94 123.69 172.99
  Q 123.84 172.99 123.95 173.08
  Q 124.20 173.27 124.07 173.35
  Q 123.63 173.62 124.14 173.71
  Q 124.90 173.84 125.01 173.12
  Q 125.09 172.58 125.59 172.78
  Q 128.30 173.89 131.12 173.25
  Q 131.64 173.13 131.72 173.67
  Q 131.78 174.07 131.90 174.45
  Q 132.13 175.17 132.32 174.44
  Q 132.84 172.54 134.17 171.42
  Z"
/>
<path fill="#391e4d" d="
  M 500.00 167.81
  L 500.00 336.39
  L 480.49 336.14
  Q 479.88 336.13 479.88 336.74
  L 479.88 337.29
  Q 479.88 337.89 479.28 337.88
  Q 477.49 337.84 475.51 337.76
  Q 467.10 337.38 458.25 337.47
  Q 456.14 337.50 453.01 336.66
  Q 452.47 336.52 452.00 336.81
  Q 451.10 337.36 450.06 337.13
  Q 448.95 336.89 447.82 337.11
  Q 445.14 337.61 443.00 337.45
  Q 436.69 336.99 431.08 337.74
  C 429.63 337.93 428.72 337.27 427.46 336.76
  A 1.25 1.24 -43.5 0 0 426.57 336.74
  Q 425.49 337.10 424.38 336.73
  Q 423.95 336.59 423.80 336.16
  Q 423.57 335.52 422.89 335.64
  Q 420.76 336.00 418.76 335.88
  Q 418.26 335.86 417.81 336.10
  Q 416.37 336.88 414.88 336.75
  Q 414.55 336.72 414.27 336.92
  Q 413.79 337.25 413.19 337.38
  Q 412.82 337.46 413.07 337.75
  Q 413.19 337.87 413.35 337.91
  Q 413.85 338.02 413.54 338.43
  Q 413.36 338.66 413.08 338.70
  Q 412.60 338.76 412.61 338.28
  Q 412.62 336.92 411.84 335.89
  A 0.50 0.48 58.0 0 0 411.23 335.74
  Q 410.58 336.06 409.88 335.84
  Q 409.25 335.64 409.14 336.31
  Q 409.01 337.17 407.98 336.75
  A 1.97 1.69 -26.3 0 0 407.47 336.62
  L 405.67 336.40
  Q 405.26 336.35 405.04 336.70
  L 403.92 338.54
  Q 408.42 325.97 404.52 314.69
  Q 405.31 305.57 404.19 296.17
  Q 403.24 288.23 400.18 278.64
  Q 393.61 258.06 386.64 236.30
  C 385.81 233.70 385.51 230.98 384.72 228.50
  Q 381.98 219.76 371.14 186.67
  L 366.12 171.58
  Q 367.63 172.13 366.26 170.34
  Q 365.46 169.29 366.29 168.60
  Q 366.53 168.40 366.37 168.15
  Q 366.08 167.69 366.43 167.25
  A 0.87 0.87 0.0 0 0 366.36 166.08
  Q 365.79 165.52 367.02 165.06
  A 1.49 1.47 45.3 0 1 368.06 165.07
  Q 373.42 167.16 378.37 167.23
  Q 378.86 167.24 379.30 167.48
  Q 380.85 168.34 382.72 168.34
  Q 386.08 168.33 386.32 168.36
  Q 387.61 168.51 388.94 168.50
  Q 390.26 168.48 391.56 168.67
  Q 394.18 169.05 396.82 168.88
  Q 397.51 168.84 398.19 168.97
  Q 398.69 169.07 399.17 168.83
  Q 399.60 168.62 400.07 168.69
  Q 402.08 169.00 404.29 168.81
  Q 406.08 168.66 407.89 168.62
  Q 418.98 168.39 429.00 167.87
  Q 430.44 167.79 431.92 168.00
  Q 433.45 168.21 434.99 168.11
  Q 442.01 167.64 449.22 168.04
  Q 450.48 168.11 451.56 168.52
  Q 452.71 168.96 454.25 168.27
  A 1.01 0.98 44.2 0 1 455.06 168.27
  L 455.59 168.50
  A 1.05 1.04 -45.3 0 0 456.41 168.49
  Q 457.15 168.15 457.83 168.46
  Q 458.26 168.66 458.73 168.65
  L 462.32 168.59
  Q 462.84 168.59 463.22 168.24
  Q 463.56 167.93 464.00 168.09
  Q 466.15 168.89 468.10 168.34
  Q 469.95 167.82 471.63 168.28
  Q 473.75 168.86 476.05 168.07
  C 477.46 167.59 478.99 168.02 480.30 168.59
  Q 480.76 168.78 481.24 168.66
  Q 483.75 168.00 484.56 168.06
  Q 491.15 168.56 497.38 169.73
  Q 498.53 169.95 499.08 169.52
  Q 499.79 168.98 500.00 167.81
  Z"
/>
<path fill="#7eaeec" d="
  M 324.39 184.43
  Q 325.95 185.60 327.49 185.76
  Q 327.90 185.80 327.90 186.22
  Q 327.89 186.70 328.31 186.47
  Q 329.94 185.56 332.02 186.04
  Q 332.50 186.16 332.96 186.01
  Q 333.33 185.89 333.72 185.78
  Q 334.00 185.71 334.28 185.75
  Q 336.27 186.09 338.23 185.70
  Q 338.55 185.63 338.85 185.73
  Q 340.50 186.25 342.27 185.96
  Q 342.74 185.88 343.07 186.23
  Q 343.38 186.56 343.78 186.32
  Q 344.23 186.06 344.75 186.09
  C 347.46 186.26 350.04 185.85 352.75 186.02
  Q 359.51 186.45 366.25 187.15
  Q 368.55 187.39 371.14 186.67
  Q 381.98 219.76 384.72 228.50
  C 385.51 230.98 385.81 233.70 386.64 236.30
  Q 393.61 258.06 400.18 278.64
  Q 403.24 288.23 404.19 296.17
  Q 405.31 305.57 404.52 314.69
  Q 402.41 324.26 396.15 329.17
  Q 389.28 334.56 379.62 335.22
  Q 367.65 336.03 355.44 330.58
  Q 377.01 332.42 392.21 320.51
  Q 397.66 316.24 400.18 310.03
  A 1.59 1.59 0.0 0 0 399.14 307.91
  C 387.39 304.53 376.79 300.24 367.66 292.99
  Q 358.23 285.50 349.62 276.66
  C 344.67 271.58 340.52 265.01 336.18 259.01
  Q 334.67 256.91 331.12 249.88
  C 328.11 242.90 325.06 236.61 323.53 229.03
  Q 320.15 212.26 321.59 197.05
  Q 322.08 191.92 324.39 184.43
  Z"
/>
<path fill="#4670b8" d="
  M 300.15 250.24
  Q 301.26 267.94 305.37 285.88
  L 269.73 237.33
  Q 274.60 231.69 279.15 226.00
  Q 284.59 219.21 288.84 215.02
  Q 296.76 207.21 305.51 199.31
  Q 308.04 197.02 307.02 200.28
  C 302.00 216.40 299.30 233.26 300.15 250.24
  Z"
/>
<path fill="#7a7d21" d="
  M 231.12 237.16
  L 192.40 289.41
  Q 192.30 286.62 193.34 284.23
  Q 195.57 279.12 196.52 274.55
  Q 199.01 262.56 199.67 249.98
  Q 200.18 240.27 198.80 230.00
  Q 197.38 219.50 196.89 216.75
  Q 195.81 210.69 193.08 202.75
  Q 192.86 202.09 192.95 201.85
  A 0.77 0.76 -57.7 0 1 194.21 201.56
  Q 202.64 210.10 212.15 217.86
  Q 216.25 221.20 220.74 226.07
  Q 225.83 231.58 231.12 237.16
  Z"
/>
<path fill="#9f982c" d="
  M 193.08 202.75
  Q 195.81 210.69 196.89 216.75
  Q 197.38 219.50 198.80 230.00
  Q 200.18 240.27 199.67 249.98
  Q 199.01 262.56 196.52 274.55
  Q 195.57 279.12 193.34 284.23
  Q 192.30 286.62 192.40 289.41
  L 190.00 293.12
  Q 189.72 291.45 186.00 291.39
  Q 180.11 291.29 174.64 290.50
  A 0.60 0.60 0.0 0 0 174.04 290.78
  Q 173.89 291.01 173.64 291.08
  Q 173.05 291.26 172.48 291.04
  Q 171.22 290.56 169.87 290.52
  Q 168.71 290.49 167.71 290.23
  Q 166.41 289.90 165.23 290.61
  Q 164.81 290.86 164.34 290.84
  Q 163.48 290.80 163.03 290.05
  A 0.43 0.42 -22.3 0 0 162.57 289.86
  Q 160.84 290.29 158.71 289.69
  Q 158.20 289.54 157.78 289.87
  Q 156.52 290.86 155.36 289.78
  A 1.35 1.35 0.0 0 0 154.52 289.44
  Q 153.20 289.41 151.96 289.95
  Q 151.44 290.17 151.03 289.78
  Q 150.47 289.26 149.97 289.80
  Q 149.58 290.22 149.08 289.92
  L 147.23 288.81
  A 0.90 0.88 -43.2 0 0 146.35 288.79
  C 144.67 289.67 143.31 288.78 141.71 288.51
  A 0.73 0.71 -70.4 0 0 140.97 288.87
  Q 140.74 289.27 140.24 289.36
  Q 139.79 289.44 139.58 289.84
  Q 139.10 290.74 137.76 290.08
  Q 148.93 280.47 152.97 275.46
  Q 156.60 270.96 165.46 256.02
  Q 171.04 246.62 175.22 231.32
  Q 178.59 218.52 178.54 206.06
  L 179.12 202.65
  Q 179.21 202.08 179.79 202.14
  Q 183.93 202.54 187.46 201.96
  Q 189.54 201.61 191.74 201.88
  Q 192.20 201.93 192.18 202.40
  Q 192.16 202.69 192.34 202.91
  Q 192.56 203.20 193.08 202.75
  Z"
/>
<path fill="#261634" d="
  M 250.85 210.30
  L 269.73 237.33
  L 305.37 285.88
  Q 311.05 295.33 315.60 300.39
  C 322.67 308.25 329.02 316.54 339.07 322.22
  Q 342.04 323.91 344.44 325.56
  Q 350.58 329.78 355.44 330.58
  Q 367.65 336.03 379.62 335.22
  Q 389.28 334.56 396.15 329.17
  Q 402.41 324.26 404.52 314.69
  Q 408.42 325.97 403.92 338.54
  Q 394.85 352.68 376.74 353.32
  Q 373.93 353.41 371.16 353.40
  Q 368.38 353.38 365.59 352.70
  Q 341.49 346.79 324.50 329.18
  Q 316.16 320.53 310.11 312.15
  Q 301.37 300.06 292.76 287.85
  C 288.45 281.75 283.58 275.89 279.41 269.33
  Q 276.68 265.02 272.81 260.11
  Q 266.25 251.78 259.59 241.37
  C 256.93 237.21 253.32 234.14 250.94 229.70
  A 1.10 1.10 0.0 0 0 249.07 229.57
  C 247.95 231.11 247.28 232.91 246.12 234.43
  Q 242.12 239.68 238.56 245.26
  C 235.51 250.05 232.16 254.88 228.71 259.42
  C 223.54 266.20 219.02 273.36 213.86 280.02
  C 205.88 290.32 198.27 301.31 190.93 311.45
  C 185.43 319.05 178.84 326.92 172.05 333.26
  Q 162.75 341.95 150.28 347.54
  Q 137.35 353.34 124.96 353.33
  C 117.96 353.35 113.91 352.59 108.06 349.59
  Q 103.34 347.18 100.94 344.84
  Q 94.75 338.80 93.15 330.99
  Q 91.51 322.99 94.98 315.47
  Q 98.19 328.29 109.32 332.86
  C 120.12 337.29 133.06 335.46 143.71 331.32
  Q 149.77 329.29 155.09 326.08
  Q 159.45 323.44 163.81 320.90
  Q 165.89 319.69 172.28 314.09
  C 176.74 310.17 180.61 305.17 184.84 300.57
  Q 186.12 299.17 190.00 293.12
  L 192.40 289.41
  L 231.12 237.16
  L 249.75 210.55
  Q 250.42 210.28 250.85 210.30
  Z"
/>
<path fill="#c0b638" d="
  M 175.22 231.32
  Q 171.04 246.62 165.46 256.02
  Q 156.60 270.96 152.97 275.46
  Q 148.93 280.47 137.76 290.08
  Q 128.79 298.50 121.38 301.37
  C 114.39 304.08 107.79 307.14 100.78 308.44
  A 1.62 1.62 0.0 0 0 99.63 310.76
  Q 102.86 317.12 108.43 321.05
  C 114.85 325.59 120.97 328.28 128.68 329.83
  Q 135.82 331.27 138.50 331.15
  Q 142.43 330.98 143.71 331.32
  C 133.06 335.46 120.12 337.29 109.32 332.86
  Q 98.19 328.29 94.98 315.47
  Q 93.17 299.33 98.24 283.24
  Q 102.68 269.15 112.26 240.37
  C 113.75 235.87 114.90 230.56 116.51 225.69
  Q 119.89 225.97 122.09 225.59
  Q 124.10 225.24 125.07 226.58
  Q 125.30 226.90 125.71 226.90
  Q 127.27 226.87 128.59 226.37
  Q 128.93 226.24 129.26 226.40
  Q 130.89 227.16 132.54 226.96
  Q 133.95 226.79 135.45 227.03
  Q 142.76 228.23 149.78 228.78
  C 150.59 228.84 151.66 229.44 152.42 229.79
  Q 152.80 229.96 153.10 229.67
  L 153.37 229.40
  Q 153.52 229.25 153.73 229.28
  Q 154.91 229.46 156.06 229.76
  Q 157.30 230.08 158.47 230.03
  Q 159.31 229.99 160.17 230.36
  Q 160.95 230.69 161.85 230.69
  Q 168.48 230.75 175.22 231.32
  Z"
/>
<path fill="#421a4e" d="
  M 403.92 338.54
  L 405.04 336.70
  Q 405.26 336.35 405.67 336.40
  L 407.47 336.62
  A 1.97 1.69 -26.3 0 1 407.98 336.75
  Q 409.01 337.17 409.14 336.31
  Q 409.25 335.64 409.88 335.84
  Q 410.58 336.06 411.23 335.74
  A 0.50 0.48 58.0 0 1 411.84 335.89
  Q 412.62 336.92 412.61 338.28
  Q 412.60 338.76 413.08 338.70
  Q 413.36 338.66 413.54 338.43
  Q 413.85 338.02 413.35 337.91
  Q 413.19 337.87 413.07 337.75
  Q 412.82 337.46 413.19 337.38
  Q 413.79 337.25 414.27 336.92
  Q 414.55 336.72 414.88 336.75
  Q 416.37 336.88 417.81 336.10
  Q 418.26 335.86 418.76 335.88
  Q 420.76 336.00 422.89 335.64
  Q 423.57 335.52 423.80 336.16
  Q 423.95 336.59 424.38 336.73
  Q 425.49 337.10 426.57 336.74
  A 1.25 1.24 -43.5 0 1 427.46 336.76
  C 428.72 337.27 429.63 337.93 431.08 337.74
  Q 436.69 336.99 443.00 337.45
  Q 445.14 337.61 447.82 337.11
  Q 448.95 336.89 450.06 337.13
  Q 451.10 337.36 452.00 336.81
  Q 452.47 336.52 453.01 336.66
  Q 456.14 337.50 458.25 337.47
  Q 467.10 337.38 475.51 337.76
  Q 477.49 337.84 479.28 337.88
  Q 479.88 337.89 479.88 337.29
  L 479.88 336.74
  Q 479.88 336.13 480.49 336.14
  L 500.00 336.39
  L 500.00 405.54
  Q 498.93 409.50 495.71 422.75
  Q 489.39 448.73 471.06 468.00
  C 457.04 482.74 439.19 492.23 418.98 496.50
  Q 406.64 499.11 401.39 500.00
  L 100.19 500.00
  Q 93.15 498.78 86.13 497.66
  Q 62.40 493.87 42.86 479.98
  C 27.21 468.87 14.91 452.11 8.29 434.47
  Q 3.08 420.60 0.00 403.87
  L 0.00 340.63
  Q 0.02 339.06 1.56 340.74
  Q 2.02 341.24 2.26 340.61
  Q 2.60 339.69 3.90 339.56
  Q 4.66 339.48 5.29 339.78
  Q 6.67 340.44 8.35 340.43
  Q 9.06 340.43 8.88 341.12
  Q 8.74 341.68 9.31 341.69
  A 0.38 0.38 0.0 0 0 9.67 341.17
  Q 9.60 341.00 9.61 340.80
  Q 9.65 340.33 10.07 340.55
  Q 10.48 340.76 10.84 340.49
  Q 11.24 340.19 11.74 340.22
  Q 19.00 340.67 26.27 340.85
  Q 28.78 340.91 30.84 341.34
  Q 31.33 341.44 31.37 341.94
  Q 31.40 342.26 31.38 342.60
  Q 31.34 343.15 31.47 342.62
  Q 31.50 342.51 31.61 342.46
  Q 34.57 341.23 37.40 341.49
  C 39.23 341.65 41.14 341.49 42.90 341.88
  Q 48.79 343.19 53.59 343.23
  Q 56.25 343.26 59.01 343.29
  Q 60.64 343.31 62.29 343.03
  Q 64.01 342.75 65.73 342.91
  Q 67.37 343.06 68.49 342.78
  Q 69.31 342.58 70.18 342.37
  C 72.47 341.82 74.36 343.11 76.79 342.29
  Q 78.20 341.81 79.59 342.28
  Q 81.25 342.84 83.01 342.87
  A 2.10 1.92 -29.1 0 1 83.85 343.07
  Q 84.95 343.62 86.27 343.70
  Q 87.89 343.79 89.28 345.05
  Q 89.65 345.38 90.13 345.49
  Q 91.21 345.72 92.24 345.83
  Q 93.24 345.93 94.08 346.46
  Q 95.57 347.39 97.26 347.18
  Q 99.26 346.93 100.04 348.97
  Q 100.31 349.68 100.93 349.25
  Q 101.41 348.93 101.74 349.41
  Q 101.97 349.74 102.36 349.86
  Q 103.49 350.21 104.35 351.17
  Q 104.61 351.46 104.97 351.30
  Q 105.51 351.06 105.85 351.57
  Q 106.36 352.32 106.50 351.42
  Q 106.64 350.58 107.47 350.07
  Q 107.78 349.88 108.12 350.00
  Q 109.60 350.51 110.84 351.34
  Q 111.95 352.08 113.26 352.46
  Q 115.74 353.17 118.14 353.71
  Q 118.58 353.81 119.00 353.63
  Q 120.21 353.10 121.54 353.49
  A 1.37 1.22 48.4 0 0 121.96 353.54
  L 124.96 353.33
  Q 137.35 353.34 150.28 347.54
  Q 162.75 341.95 172.05 333.26
  C 178.84 326.92 185.43 319.05 190.93 311.45
  C 198.27 301.31 205.88 290.32 213.86 280.02
  C 219.02 273.36 223.54 266.20 228.71 259.42
  C 232.16 254.88 235.51 250.05 238.56 245.26
  Q 242.12 239.68 246.12 234.43
  C 247.28 232.91 247.95 231.11 249.07 229.57
  A 1.10 1.10 0.0 0 1 250.94 229.70
  C 253.32 234.14 256.93 237.21 259.59 241.37
  Q 266.25 251.78 272.81 260.11
  Q 276.68 265.02 279.41 269.33
  C 283.58 275.89 288.45 281.75 292.76 287.85
  Q 301.37 300.06 310.11 312.15
  Q 316.16 320.53 324.50 329.18
  Q 341.49 346.79 365.59 352.70
  Q 368.38 353.38 371.16 353.40
  Q 373.93 353.41 376.74 353.32
  Q 394.85 352.68 403.92 338.54
  Z
  M 146.45 408.44
  C 139.74 411.27 132.40 408.17 130.87 400.92
  Q 129.28 393.40 134.18 387.99
  Q 136.26 385.69 139.19 385.47
  Q 145.52 385.00 149.43 387.74
  Q 152.07 389.59 153.48 386.69
  Q 153.69 386.25 153.77 385.77
  Q 154.15 383.40 152.05 382.22
  Q 141.27 376.18 132.93 381.04
  C 127.18 384.39 123.51 388.97 122.97 395.90
  C 121.70 411.97 139.04 421.66 152.23 412.53
  Q 154.13 411.22 153.69 408.94
  L 153.47 407.82
  Q 152.97 405.31 150.68 406.47
  Q 148.56 407.54 146.45 408.44
  Z
  M 250.28 405.00
  Q 249.95 405.83 249.62 405.00
  L 240.40 381.36
  Q 239.29 378.54 236.39 379.41
  L 235.68 379.62
  A 2.71 2.71 0.0 0 0 234.01 383.38
  Q 236.99 389.68 238.75 395.07
  C 241.00 401.97 243.91 408.08 246.75 414.50
  C 247.56 416.35 250.13 415.78 251.72 415.71
  A 1.38 1.37 -78.2 0 0 252.91 414.93
  C 255.88 408.84 258.88 402.79 260.92 396.13
  Q 262.91 389.67 265.50 383.80
  Q 266.64 381.25 264.11 380.04
  Q 263.84 379.91 263.41 379.70
  Q 260.92 378.52 259.90 381.07
  L 250.28 405.00
  Z
  M 164.50 391.31
  L 164.67 382.95
  Q 164.72 380.41 162.30 379.59
  Q 161.74 379.40 161.16 379.43
  Q 157.84 379.56 157.83 382.89
  L 157.76 412.15
  Q 157.75 415.34 160.92 415.74
  Q 161.45 415.80 161.97 415.71
  Q 164.47 415.24 164.49 412.70
  Q 164.55 406.69 164.50 400.71
  C 164.43 392.33 174.10 393.05 174.20 400.08
  Q 174.28 406.15 174.09 412.37
  A 2.91 2.88 24.5 0 0 174.88 414.45
  Q 176.44 416.10 177.84 415.79
  Q 180.43 415.22 180.48 412.57
  Q 180.59 407.82 180.70 401.44
  C 180.82 394.18 177.28 388.16 169.17 389.66
  C 167.75 389.92 166.43 390.87 165.26 391.71
  Q 164.48 392.28 164.50 391.31
  Z
  M 223.53 389.12
  C 223.45 386.87 224.30 383.63 221.35 382.68
  C 217.70 381.51 217.16 385.57 217.47 388.10
  Q 217.74 390.31 215.57 389.78
  Q 212.76 389.10 212.53 391.47
  Q 212.16 395.26 216.42 395.02
  A 0.81 0.81 0.0 0 1 217.27 395.84
  Q 217.18 401.74 217.32 407.72
  C 217.39 410.82 218.58 414.63 222.04 415.34
  Q 226.86 416.34 231.16 415.30
  Q 232.98 414.86 232.99 412.98
  L 233.00 411.84
  Q 233.01 409.97 231.14 410.04
  C 228.94 410.12 223.84 411.42 223.66 407.68
  Q 223.41 402.64 223.54 395.76
  Q 223.55 395.20 224.11 395.21
  L 230.90 395.26
  Q 232.58 395.28 232.52 393.60
  L 232.43 391.54
  Q 232.36 389.81 230.63 389.80
  L 224.20 389.77
  Q 223.55 389.76 223.53 389.12
  Z
  M 350.06 404.75
  L 368.47 404.76
  A 0.71 0.70 6.7 0 0 369.16 404.22
  Q 370.23 399.60 367.69 395.59
  C 366.34 393.46 364.43 390.98 361.98 390.12
  C 354.02 387.31 344.30 391.25 343.25 400.33
  C 342.25 408.94 346.05 414.41 354.28 415.73
  C 359.28 416.54 363.44 415.89 367.46 413.13
  Q 368.90 412.14 368.16 410.55
  L 367.58 409.30
  Q 366.76 407.56 365.06 408.45
  C 360.41 410.87 352.16 411.41 349.59 405.47
  Q 349.28 404.75 350.06 404.75
  Z
  M 202.21 412.74
  L 202.42 414.13
  Q 202.53 414.83 203.20 415.07
  Q 205.69 415.94 207.98 414.92
  Q 208.68 414.61 208.71 413.85
  Q 209.08 405.19 208.52 398.64
  C 207.56 387.50 195.27 388.23 187.69 391.41
  Q 186.54 391.90 187.05 393.04
  L 187.97 395.07
  Q 188.38 395.98 189.33 395.66
  C 193.99 394.05 202.01 392.70 202.21 400.07
  Q 202.24 401.11 201.24 400.83
  C 197.40 399.74 191.66 399.33 188.22 401.67
  C 181.94 405.95 185.45 414.89 192.36 415.84
  Q 197.86 416.60 201.58 412.55
  Q 202.10 411.98 202.21 412.74
  Z
  M 275.01 404.76
  L 292.08 404.74
  A 1.13 1.12 -85.5 0 0 293.19 403.79
  C 294.61 394.81 286.31 388.30 277.85 389.66
  C 262.64 392.10 262.50 413.44 278.10 415.67
  Q 285.96 416.79 291.06 413.24
  A 2.12 2.10 -6.4 0 0 291.76 412.37
  C 292.70 410.08 290.62 407.87 288.37 408.84
  Q 285.19 410.21 281.11 410.28
  Q 278.27 410.33 276.18 408.41
  Q 275.23 407.53 274.27 406.66
  Q 272.21 404.76 275.01 404.76
  Z
  M 304.97 392.70
  Q 304.18 393.51 304.07 392.38
  C 303.63 387.89 298.07 389.02 298.02 393.00
  Q 297.93 401.48 298.03 412.32
  Q 298.06 415.00 301.07 415.78
  Q 301.52 415.90 301.96 415.76
  Q 304.29 415.03 304.34 413.44
  Q 304.52 408.45 304.57 402.69
  Q 304.59 399.10 305.89 397.87
  Q 308.47 395.44 312.27 396.09
  Q 314.76 396.51 314.71 393.99
  L 314.66 391.87
  Q 314.60 389.39 312.12 389.42
  Q 308.15 389.48 304.97 392.70
  Z
  M 326.16 398.86
  A 2.09 2.09 0.0 0 1 325.50 395.10
  C 328.15 393.33 331.78 394.72 334.48 395.89
  C 336.06 396.58 337.84 395.68 338.69 394.34
  A 0.71 0.70 -43.0 0 0 338.72 393.65
  C 336.74 389.69 330.55 389.43 326.66 389.58
  C 318.51 389.89 314.19 400.66 323.27 403.91
  Q 327.00 405.25 331.01 406.33
  A 1.96 1.96 0.0 0 1 331.66 409.79
  C 328.93 411.80 324.57 410.05 322.01 408.31
  A 3.01 2.73 29.7 0 0 317.71 409.26
  Q 317.61 409.47 317.53 409.70
  Q 316.86 411.71 318.57 412.97
  Q 323.91 416.90 332.48 415.57
  Q 337.33 414.82 339.09 410.69
  C 341.46 405.13 337.00 401.58 332.11 400.34
  Q 329.03 399.56 326.16 398.86
  Z"
/>
<path fill="#596cd4" d="
  M 331.12 249.88
  Q 334.67 256.91 336.18 259.01
  C 340.52 265.01 344.67 271.58 349.62 276.66
  Q 358.23 285.50 367.66 292.99
  C 376.79 300.24 387.39 304.53 399.14 307.91
  A 1.59 1.59 0.0 0 1 400.18 310.03
  Q 397.66 316.24 392.21 320.51
  Q 377.01 332.42 355.44 330.58
  Q 350.58 329.78 344.44 325.56
  Q 342.04 323.91 339.07 322.22
  C 329.02 316.54 322.67 308.25 315.60 300.39
  Q 311.05 295.33 305.37 285.88
  Q 301.26 267.94 300.15 250.24
  L 300.97 250.68
  Q 301.41 250.92 301.87 250.72
  Q 302.72 250.36 303.59 250.46
  C 305.47 250.67 307.19 250.30 309.08 250.47
  Q 320.15 251.50 331.12 249.88
  Z"
/>
<path fill="#ad8625" d="
  M 190.00 293.12
  Q 186.12 299.17 184.84 300.57
  C 180.61 305.17 176.74 310.17 172.28 314.09
  Q 165.89 319.69 163.81 320.90
  Q 159.45 323.44 155.09 326.08
  Q 149.77 329.29 143.71 331.32
  Q 142.43 330.98 138.50 331.15
  Q 135.82 331.27 128.68 329.83
  C 120.97 328.28 114.85 325.59 108.43 321.05
  Q 102.86 317.12 99.63 310.76
  A 1.62 1.62 0.0 0 1 100.78 308.44
  C 107.79 307.14 114.39 304.08 121.38 301.37
  Q 128.79 298.50 137.76 290.08
  Q 139.10 290.74 139.58 289.84
  Q 139.79 289.44 140.24 289.36
  Q 140.74 289.27 140.97 288.87
  A 0.73 0.71 -70.4 0 1 141.71 288.51
  C 143.31 288.78 144.67 289.67 146.35 288.79
  A 0.90 0.88 -43.2 0 1 147.23 288.81
  L 149.08 289.92
  Q 149.58 290.22 149.97 289.80
  Q 150.47 289.26 151.03 289.78
  Q 151.44 290.17 151.96 289.95
  Q 153.20 289.41 154.52 289.44
  A 1.35 1.35 0.0 0 1 155.36 289.78
  Q 156.52 290.86 157.78 289.87
  Q 158.20 289.54 158.71 289.69
  Q 160.84 290.29 162.57 289.86
  A 0.43 0.42 -22.3 0 1 163.03 290.05
  Q 163.48 290.80 164.34 290.84
  Q 164.81 290.86 165.23 290.61
  Q 166.41 289.90 167.71 290.23
  Q 168.71 290.49 169.87 290.52
  Q 171.22 290.56 172.48 291.04
  Q 173.05 291.26 173.64 291.08
  Q 173.89 291.01 174.04 290.78
  A 0.60 0.60 0.0 0 1 174.64 290.50
  Q 180.11 291.29 186.00 291.39
  Q 189.72 291.45 190.00 293.12
  Z"
/>
<path fill="#fffefe" d="
  M 130.87 400.92
  C 132.40 408.17 139.74 411.27 146.45 408.44
  Q 148.56 407.54 150.68 406.47
  Q 152.97 405.31 153.47 407.82
  L 153.69 408.94
  Q 154.13 411.22 152.23 412.53
  C 139.04 421.66 121.70 411.97 122.97 395.90
  C 123.51 388.97 127.18 384.39 132.93 381.04
  Q 141.27 376.18 152.05 382.22
  Q 154.15 383.40 153.77 385.77
  Q 153.69 386.25 153.48 386.69
  Q 152.07 389.59 149.43 387.74
  Q 145.52 385.00 139.19 385.47
  Q 136.26 385.69 134.18 387.99
  Q 129.28 393.40 130.87 400.92
  Z"
/>
<path fill="#fffefe" d="
  M 250.28 405.00
  L 259.90 381.07
  Q 260.92 378.52 263.41 379.70
  Q 263.84 379.91 264.11 380.04
  Q 266.64 381.25 265.50 383.80
  Q 262.91 389.67 260.92 396.13
  C 258.88 402.79 255.88 408.84 252.91 414.93
  A 1.38 1.37 -78.2 0 1 251.72 415.71
  C 250.13 415.78 247.56 416.35 246.75 414.50
  C 243.91 408.08 241.00 401.97 238.75 395.07
  Q 236.99 389.68 234.01 383.38
  A 2.71 2.71 0.0 0 1 235.68 379.62
  L 236.39 379.41
  Q 239.29 378.54 240.40 381.36
  L 249.62 405.00
  Q 249.95 405.83 250.28 405.00
  Z"
/>
<path fill="#fffefe" d="
  M 165.26 391.71
  C 166.43 390.87 167.75 389.92 169.17 389.66
  C 177.28 388.16 180.82 394.18 180.70 401.44
  Q 180.59 407.82 180.48 412.57
  Q 180.43 415.22 177.84 415.79
  Q 176.44 416.10 174.88 414.45
  A 2.91 2.88 24.5 0 1 174.09 412.37
  Q 174.28 406.15 174.20 400.08
  C 174.10 393.05 164.43 392.33 164.50 400.71
  Q 164.55 406.69 164.49 412.70
  Q 164.47 415.24 161.97 415.71
  Q 161.45 415.80 160.92 415.74
  Q 157.75 415.34 157.76 412.15
  L 157.83 382.89
  Q 157.84 379.56 161.16 379.43
  Q 161.74 379.40 162.30 379.59
  Q 164.72 380.41 164.67 382.95
  L 164.50 391.31
  Q 164.48 392.28 165.26 391.71
  Z"
/>
<path fill="#fffefe" d="
  M 224.20 389.77
  L 230.63 389.80
  Q 232.36 389.81 232.43 391.54
  L 232.52 393.60
  Q 232.58 395.28 230.90 395.26
  L 224.11 395.21
  Q 223.55 395.20 223.54 395.76
  Q 223.41 402.64 223.66 407.68
  C 223.84 411.42 228.94 410.12 231.14 410.04
  Q 233.01 409.97 233.00 411.84
  L 232.99 412.98
  Q 232.98 414.86 231.16 415.30
  Q 226.86 416.34 222.04 415.34
  C 218.58 414.63 217.39 410.82 217.32 407.72
  Q 217.18 401.74 217.27 395.84
  A 0.81 0.81 0.0 0 0 216.42 395.02
  Q 212.16 395.26 212.53 391.47
  Q 212.76 389.10 215.57 389.78
  Q 217.74 390.31 217.47 388.10
  C 217.16 385.57 217.70 381.51 221.35 382.68
  C 224.30 383.63 223.45 386.87 223.53 389.12
  Q 223.55 389.76 224.20 389.77
  Z"
/>
<path fill="#fffefe" d="
  M 349.59 405.47
  C 352.16 411.41 360.41 410.87 365.06 408.45
  Q 366.76 407.56 367.58 409.30
  L 368.16 410.55
  Q 368.90 412.14 367.46 413.13
  C 363.44 415.89 359.28 416.54 354.28 415.73
  C 346.05 414.41 342.25 408.94 343.25 400.33
  C 344.30 391.25 354.02 387.31 361.98 390.12
  C 364.43 390.98 366.34 393.46 367.69 395.59
  Q 370.23 399.60 369.16 404.22
  A 0.71 0.70 6.7 0 1 368.47 404.76
  L 350.06 404.75
  Q 349.28 404.75 349.59 405.47
  Z
  M 349.69 399.98
  L 363.51 400.00
  A 0.01 0.01 0.0 0 0 363.52 399.99
  L 363.52 399.94
  A 6.80 5.50 0.1 0 0 356.72 394.43
  L 356.48 394.43
  A 6.80 5.50 0.1 0 0 349.68 399.92
  L 349.68 399.97
  A 0.01 0.01 0.0 0 0 349.69 399.98
  Z"
/>
<path fill="#fffefe" d="
  M 202.21 412.74
  Q 202.10 411.98 201.58 412.55
  Q 197.86 416.60 192.36 415.84
  C 185.45 414.89 181.94 405.95 188.22 401.67
  C 191.66 399.33 197.40 399.74 201.24 400.83
  Q 202.24 401.11 202.21 400.07
  C 202.01 392.70 193.99 394.05 189.33 395.66
  Q 188.38 395.98 187.97 395.07
  L 187.05 393.04
  Q 186.54 391.90 187.69 391.41
  C 195.27 388.23 207.56 387.50 208.52 398.64
  Q 209.08 405.19 208.71 413.85
  Q 208.68 414.61 207.98 414.92
  Q 205.69 415.94 203.20 415.07
  Q 202.53 414.83 202.42 414.13
  L 202.21 412.74
  Z
  M 202.0441 406.8289
  A 5.21 3.58 -8.4 0 0 196.3670 404.0484
  A 5.21 3.58 -8.4 0 0 191.7359 408.3511
  A 5.21 3.58 -8.4 0 0 197.4130 411.1316
  A 5.21 3.58 -8.4 0 0 202.0441 406.8289
  Z"
/>
<path fill="#fffefe" d="
  M 275.01 404.76
  Q 272.21 404.76 274.27 406.66
  Q 275.23 407.53 276.18 408.41
  Q 278.27 410.33 281.11 410.28
  Q 285.19 410.21 288.37 408.84
  C 290.62 407.87 292.70 410.08 291.76 412.37
  A 2.12 2.10 -6.4 0 1 291.06 413.24
  Q 285.96 416.79 278.10 415.67
  C 262.50 413.44 262.64 392.10 277.85 389.66
  C 286.31 388.30 294.61 394.81 293.19 403.79
  A 1.13 1.12 -85.5 0 1 292.08 404.74
  L 275.01 404.76
  Z
  M 273.77 400.03
  L 286.61 400.07
  A 0.02 0.02 0.0 0 0 286.63 400.05
  L 286.63 399.99
  A 6.31 5.50 0.2 0 0 280.34 394.47
  L 280.08 394.47
  A 6.31 5.50 0.2 0 0 273.75 399.95
  L 273.75 400.01
  A 0.02 0.02 0.0 0 0 273.77 400.03
  Z"
/>
<path fill="#fffefe" d="
  M 304.97 392.70
  Q 308.15 389.48 312.12 389.42
  Q 314.60 389.39 314.66 391.87
  L 314.71 393.99
  Q 314.76 396.51 312.27 396.09
  Q 308.47 395.44 305.89 397.87
  Q 304.59 399.10 304.57 402.69
  Q 304.52 408.45 304.34 413.44
  Q 304.29 415.03 301.96 415.76
  Q 301.52 415.90 301.07 415.78
  Q 298.06 415.00 298.03 412.32
  Q 297.93 401.48 298.02 393.00
  C 298.07 389.02 303.63 387.89 304.07 392.38
  Q 304.18 393.51 304.97 392.70
  Z"
/>
<path fill="#fffefe" d="
  M 326.16 398.86
  Q 329.03 399.56 332.11 400.34
  C 337.00 401.58 341.46 405.13 339.09 410.69
  Q 337.33 414.82 332.48 415.57
  Q 323.91 416.90 318.57 412.97
  Q 316.86 411.71 317.53 409.70
  Q 317.61 409.47 317.71 409.26
  A 3.01 2.73 29.7 0 1 322.01 408.31
  C 324.57 410.05 328.93 411.80 331.66 409.79
  A 1.96 1.96 0.0 0 0 331.01 406.33
  Q 327.00 405.25 323.27 403.91
  C 314.19 400.66 318.51 389.89 326.66 389.58
  C 330.55 389.43 336.74 389.69 338.72 393.65
  A 0.71 0.70 -43.0 0 1 338.69 394.34
  C 337.84 395.68 336.06 396.58 334.48 395.89
  C 331.78 394.72 328.15 393.33 325.50 395.10
  A 2.09 2.09 0.0 0 0 326.16 398.86
  Z"
/>
<path fill="#421a4e" d="
  M 273.77 400.03
  A 0.02 0.02 0.0 0 1 273.75 400.01
  L 273.75 399.95
  A 6.31 5.50 0.2 0 1 280.08 394.47
  L 280.34 394.47
  A 6.31 5.50 0.2 0 1 286.63 399.99
  L 286.63 400.05
  A 0.02 0.02 0.0 0 1 286.61 400.07
  L 273.77 400.03
  Z"
/>
<path fill="#421a4e" d="
  M 349.69 399.98
  A 0.01 0.01 0.0 0 1 349.68 399.97
  L 349.68 399.92
  A 6.80 5.50 0.1 0 1 356.48 394.43
  L 356.72 394.43
  A 6.80 5.50 0.1 0 1 363.52 399.94
  L 363.52 399.99
  A 0.01 0.01 0.0 0 1 363.51 400.00
  L 349.69 399.98
  Z"
/>
<ellipse fill="#421a4e" cx="0.00" cy="0.00" transform="translate(196.89,407.59) rotate(-8.4)" rx="5.21" ry="3.58"/>
</svg>
